<svg xmlns="http://www.w3.org/2000/svg" width="365" height="400" fill="none" viewBox="0 0 365 400"><g clip-path="url(#clip0)"><path fill="#212121" d="M220.436 400c79.423 0 143.808-20.524 143.808-45.841s-64.385-45.841-143.808-45.841c-79.423 0-143.808 20.524-143.808 45.841S141.013 400 220.436 400z"/><path fill="#946037" d="M314.624 286.491c4.909-33.344-13.546-62.14-54.893-62.67 10.067-25.722-11.243-54.084-29.291-64.76.085 53.715-87.382 56.989-111.239 72.331-31.081 19.988-15.488 55.585-15.488 55.585s-69.6 21.894-32.182 67.607c36.779 44.928 250.337 42.442 274.836-4.646 22.13-42.535-31.743-63.447-31.743-63.447z"/><path fill="#4D352D" d="M206.471 388.923h-.016c-30.248 0-59.835-2.867-83.313-8.071-26.237-5.815-44.648-14.438-53.241-24.935-10.172-12.426-13.639-24.393-10.3-35.568 6.155-20.624 33.445-31.807 41.368-34.659a59.269 59.269 0 0 1-3.27-19.008c-.013-10.925 3.51-26.222 20.366-37.062 7.077-4.552 19.114-7.959 33.051-11.9 17.124-4.847 36.534-10.341 51.719-19.365 17.186-10.212 25.528-23.063 25.5-39.289a2.11 2.11 0 0 1 3.178-1.815c10.15 6 19.857 16.3 25.967 27.545 4.93 9.072 9.633 22.633 5.189 37.006 18.2.829 32.877 7.239 42.59 18.633 9.749 11.437 13.867 27.272 11.672 44.739 6 2.623 27.368 13.118 34.547 32.168 3.965 10.522 2.875 21.816-3.24 33.569-7.884 15.153-32.792 23.964-52.3 28.688-24.841 6.012-56.615 9.324-89.467 9.324zm25.941-226.1c-1.177 16.064-10.183 28.9-27.429 39.148-15.659 9.305-35.35 14.879-52.724 19.8-13.614 3.853-25.37 7.181-31.92 11.393-12.206 7.85-18.408 19.079-18.433 33.374a54.462 54.462 0 0 0 3.735 19.6 2.1 2.1 0 0 1-.015 1.716 2.104 2.104 0 0 1-1.285 1.136c-.342.108-34.294 11.039-40.714 32.577-2.906 9.751.3 20.412 9.53 31.687 7.989 9.76 25.588 17.883 50.894 23.492 23.187 5.139 52.451 7.97 82.4 7.971h.016c32.53 0 63.948-3.27 88.474-9.208 26.756-6.479 43.891-15.655 49.554-26.538 5.536-10.639 6.559-20.775 3.042-30.124-7.528-20.007-33.419-30.287-33.68-30.388a2.111 2.111 0 0 1-1.32-2.27c2.487-16.889-1.238-32.167-10.488-43.018-9.414-11.043-24.058-17-42.348-17.238a2.099 2.099 0 0 1-1.72-.93 2.103 2.103 0 0 1-.214-1.943c8.883-22.696-8.303-48.479-25.355-60.236v-.001z"/><path fill="#4D352D" d="M254.795 229.916a2.109 2.109 0 01-2.061-1.666 2.108 2.108 0 011.201-2.363c2.037-.91 3.358-1.93 3.924-3.03a2.107 2.107 0 013.847.342c.174.521.137 1.09-.103 1.585-1.03 2-2.977 3.619-5.952 4.947a2.105 2.105 0 01-.856.185zM310.258 292.549a2.105 2.105 0 01-.749-4.074 5.329 5.329 0 003.19-2.842 2.104 2.104 0 012.759-1.024 2.106 2.106 0 011.089 2.734 9.583 9.583 0 01-5.541 5.069 2.1 2.1 0 01-.748.137z"/><path fill="#fff" d="M76.049 295.573l-1.906 43.26a3.071 3.071 0 0 1-5.329 1.939c-.55-.6-.839-1.394-.804-2.207l1.965-44.593a12.776 12.776 0 0 0 6.074 1.601z"/><path fill="#4D352D" d="M71.078 343.172h-.2a4.478 4.478 0 0 1-4.274-4.667l2.064-46.838 1.971 1.066a11.405 11.405 0 0 0 5.414 1.435l1.462.006-1.971 44.719a4.467 4.467 0 0 1-4.466 4.279zm.206-47.07l-1.874 42.521a1.669 1.669 0 0 0 1.592 1.739h.075a1.662 1.662 0 0 0 1.663-1.595l1.845-41.878a13.93 13.93 0 0 1-3.307-.786l.006-.001z"/><path fill="#946037" d="M82.329 318.386s-22.55-20.523-16.894-27.312c5.633-6.76 29.317 6.758 29.317 6.758l-12.423 20.554z"/><path fill="#4D352D" d="M82.327 320.491a2.095 2.095 0 0 1-1.416-.548 123.54 123.54 0 0 1-10.776-11.328c-7.383-8.953-9.449-15.132-6.318-18.89 3.017-3.621 9.279-3.547 19.141.226 4.412 1.723 8.7 3.745 12.837 6.051a2.106 2.106 0 0 1-2.087 3.658c-8.936-5.1-23.588-10.922-26.656-7.239-2.609 3.131 6.525 15.148 16.693 24.406a2.108 2.108 0 0 1-.228 3.294c-.35.24-.765.369-1.19.369v.001z"/><path fill="#212121" d="M184.809 302.213a60.914 60.914 0 0 0 48.449 0 6.076 6.076 0 0 1 7.71 2.205c1.477 2.574 0 6.184-3.43 7.669a71.672 71.672 0 0 1-57.01 0c-3.432-1.485-4.907-5.1-3.43-7.669a6.072 6.072 0 0 1 7.711-2.205z"/><path fill="#fff" d="M208.305 317.945h-8.545v-5.585c0-.229.091-.449.253-.612a.868.868 0 01.612-.253h6.814a.854.854 0 01.612.253.87.87 0 01.253.612l.001 5.585zM218.305 317.945h-8.544v-5.585c0-.229.091-.449.253-.612a.868.868 0 01.612-.253h6.814c.229 0 .449.091.612.253a.868.868 0 01.253.612v5.585z"/><path stroke="#4D352D" stroke-linecap="round" stroke-linejoin="round" stroke-width="6" d="M184.808 302.213a60.915 60.915 0 0 0 48.449 0 6.076 6.076 0 0 1 7.71 2.205c1.477 2.574 0 6.184-3.43 7.669a71.672 71.672 0 0 1-57.01 0c-3.432-1.485-4.907-5.1-3.43-7.669a6.072 6.072 0 0 1 7.711-2.205v0z"/><path fill="#fff" d="M70.082 291.48l6.155-139.646 6.135.27s-6.064 139.6-6.2 140.789c-.136 1.189-1.718 1.56-3.335 1.375-1.617-.185-2.838-.886-2.755-2.788z"/><path fill="#4D352D" d="M73.602 295.716c-.31 0-.62-.018-.929-.054-3.755-.429-4.044-3.111-3.994-4.245l6.155-139.647.062-1.4 8.94.394-.061 1.4c-.621 14.294-6.071 139.685-6.213 140.892-.153 1.287-1.272 2.66-3.96 2.66zm3.975-142.419l-6.093 138.244c-.025.567-.051 1.154 1.508 1.332.203.023.406.036.61.036.404.03.81-.048 1.174-.226.225-3.371 5.5-124.74 6.133-139.238l-3.332-.148z"/><path fill="#fff" d="M1.464 189.848L9.761 1.471l144.864 6.38-8.297 188.377-144.864-6.38z"/><path fill="#4D352D" d="M147.673 197.697L0 191.189 8.426.001 156.1 6.512l-8.427 191.185zM2.928 188.512l142.064 6.261 8.179-185.578L11.107 2.928 2.928 188.512z"/><path fill="#4D352D" d="M48.863 19.865a5.474 5.474 0 0 0-.357 1.918c-.016.423.061.85.045 1.274 0 2.45-.656 4.828-.7 7.275.043.298.063.599.059.9.052.48-.032.965-.242 1.4-.61 1.154-.479 2.668-.671 3.979-.313 2.014-1.006 4.108-.993 6.228-.034.894-.664 1.341-.662 2.519-.02.518-.363.881-.336 1.4-.029.753-.083.94-1.033 1.138a6.186 6.186 0 0 1-1.233.189c-.518-.02-.886-.222-.906-.93-.011-.942.629-1.672.616-2.568.018-.47.407-.785.514-1.111.973-2.036.8-4.869 1.311-7.159.9-3.923.921-8.069 1.64-12.046.047-.152.069-.31.065-.469-.027-.519-.148-1.042-.174-1.608.018-.47.177-.936.148-1.408.009-.235-.028-.519-.019-.755-.018-1.98.7-2.188 1.967-2.139 1.082.041 1.394.525 1.365 1.277-.012.287-.395.46-.404.696z"/><path fill="#4D352D" d="M42.805 50.743h-.167a3.447 3.447 0 01-3.455-3.505 6.065 6.065 0 01.487-2.336c.044-.117.1-.271.128-.354v-.055a3.96 3.96 0 01.745-2.1l.026-.054c.402-1.14.632-2.333.681-3.54.084-1.026.23-2.045.434-3.054.437-2.114.742-4.253.911-6.405.182-1.808.371-3.677.707-5.534l.009-.05c-.012-.1-.028-.219-.044-.338-.044-.319-.095-.681-.113-1.1l-.005-.111v-.111c.016-.315.053-.63.11-.94.014-.083.031-.164.039-.247l-.005-.087v-.132c0-.03 0-.085-.007-.138-.01-.18-.014-.36-.013-.54a4.894 4.894 0 011.267-3.674 4.491 4.491 0 013.455-1.092 4.08 4.08 0 012.918 1.194 3.767 3.767 0 01.995 2.836 3.1 3.1 0 01-.656 1.769c-.066.276-.1.558-.1.841 0 .065.008.213.018.344.025.29.035.581.03.872a29.421 29.421 0 01-.379 4.1c-.16.996-.266 2-.32 3.008.04.334.06.67.057 1.006a5.07 5.07 0 01-.566 2.692 6.176 6.176 0 00-.239 1.648c-.031.463-.064.942-.137 1.444-.121.781-.282 1.524-.437 2.243a17.146 17.146 0 00-.527 3.586v.118a5.262 5.262 0 01-.523 2.019c-.137.312-.137.327-.137.394v.106a4.482 4.482 0 01-.341 1.5 3.47 3.47 0 01-3.136 3.534l-.066.014c-.09.017-.178.034-.267.054a6.468 6.468 0 01-1.377.175zM71.248 23.455c-.706-.027-1.332-.9-1.98-1.206a6.94 6.94 0 00-2.287-.559c-2.964-.114-5.225 2.344-6.774 4.64-.548.78-.63 2.9-.684 3.084-.088 2.305 2.617 4.247 3.6 4.378a9.355 9.355 0 012.747.859l2.037.926c.88.411 2.011.407 2.738 1.094.547.492 2.475 1.791 2.583 2.69.04.392.056.786.049 1.18-.088 2.306-1.86 3.038-2.889 4.082a13.126 13.126 0 01-8.609 3.346 11.695 11.695 0 01-5.276-1.239c-1.2-.705-2.928-1.055-3.392-2.486-.213-.574-.912-.789-.872-1.824.027-.705.474-1.3.85-1.286a.86.86 0 01.727.687c.3 2.038 4.288 3.7 7.063 3.8 3.152.121 8.344-1.329 9.382-5.058-.29-2.273-4.561-2.719-5.3-3.124-1.616-.863-3.021-1.106-4.3-2.05-.5-.349-1.945-.876-2.211-1.31a10.215 10.215 0 01-1.384-5.707c.081-2.117 1.617-4.085 2.8-5.406 1.919-2.141 3.727-3.815 6.973-3.691 1.129.043 5.545.4 5.952 3.291-.065.43-.932.912-1.543.889z"/><path fill="#4D352D" d="M62.065 50.627c-.13 0-.258 0-.386-.007a14.18 14.18 0 01-6.538-1.613c-.2-.114-.476-.241-.77-.375a6.34 6.34 0 01-3.654-3.217 4.275 4.275 0 01-1.128-3.1 4.427 4.427 0 01.761-2.317 3.344 3.344 0 012.844-1.518 3.5 3.5 0 013.219 2.782 7.885 7.885 0 004.569 1.709c1.982.075 4.839-.676 6.127-2.087-.59-.222-1.193-.41-1.805-.562a6.912 6.912 0 01-1.617-.558 15.483 15.483 0 00-1.618-.711 12.658 12.658 0 01-2.923-1.485c-.062-.034-.313-.157-.48-.239a5.545 5.545 0 01-2.453-1.816 12.875 12.875 0 01-1.8-7.238c.114-2.987 2.036-5.467 3.472-7.072 2.159-2.408 4.632-4.751 9.052-4.574 4.843.186 8.011 2.269 8.478 5.571l.054.382-.057.382c-.3 1.965-2.445 3.206-4.266 3.14a4.665 4.665 0 01-2.812-1.277 14.073 14.073 0 00-.229-.186 4.074 4.074 0 00-1.225-.3c-1.366-.051-2.853 1.091-4.423 3.4a8.245 8.245 0 00-.25 1.579c-.01.1-.018.187-.028.27a3.193 3.193 0 001.467 1.6 12.06 12.06 0 013.348 1.06l2.014.915c.208.08.42.145.637.195a6.086 6.086 0 012.79 1.355c.088.077.218.176.368.295 1.558 1.229 2.864 2.382 3.062 4.041l.009.088c.05.501.07 1.005.057 1.508a6.862 6.862 0 01-3.051 5.333c-.208.16-.408.33-.6.51a15.9 15.9 0 01-10.215 4.137zM97.281 20.306a25.052 25.052 0 01-6.036 1.37 3.652 3.652 0 00-2.2.811c-.082.433-.13.872-.145 1.313-.068 1.788 0 3.628-.065 5.416-.078 2.023-.622 3.933-.7 5.91-.049 1.269.091 2.547.044 3.771-.088 2.305-.835 4.585-.923 6.891-.047 1.223.331 2.415.291 3.451a1.736 1.736 0 01-2.041 1.618c-1.176-.045-1.328-.993-1.269-2.546.027-1.141.197-2.274.506-3.373.536-1.676.372-3.567.582-5.348.074-.7.15-1.455.177-2.161.038-.988-.064-2.028-.024-3.063.034-.894.5-1.913.533-2.854.013-.329-.163-.666-.1-.993.158-.34.267-.701.323-1.072a5.778 5.778 0 00-.257-1.894c.009-.235.257-.555.273-.979.015-.376-.065-.756-.052-1.085.036-.941.121-1.927.157-2.868-1.611.221-3.233.771-4.84.9-.994.296-2.01.509-3.04.637a1.31 1.31 0 01-1.406-1.42c.059-1.553.494-1.819 1.679-2.009 1.752-.216 3.483.087 5.242-.318 1.616-.362 3.269-.487 4.842-.945a3.57 3.57 0 01.9-.2c.235.009.654.167 1.124.184a9.742 9.742 0 002.039-.346c1.577-.4 3.2-.592 4.828-.569a7.243 7.243 0 011.514-.177.98.98 0 011.039 1.17c-.502.967-2.139.574-2.995.778z"/><path fill="#4D352D" d="M85.628 53.513h-.22c-1.5-.058-3.99-.823-3.818-5.3.032-1.367.24-2.725.617-4.039.232-.92.347-1.864.343-2.812.029-.67.06-1.363.144-2.079.07-.663.138-1.34.161-1.953.015-.4 0-.841-.013-1.313-.017-.558-.035-1.135-.011-1.75.043-.66.158-1.315.343-1.95.068-.264.143-.555.175-.76a3.835 3.835 0 01-.047-1.512l.012-.059c.06-.281.152-.555.273-.816a2.535 2.535 0 00-.117-.721 2.957 2.957 0 01-.141-1c.02-.396.108-.786.261-1.152 0-.022 0-.043-.007-.065-.009-.1-.019-.213-.026-.335-.575.118-1.155.204-1.739.258-.149.027-.463.119-.7.187a8.535 8.535 0 01-2.746.464 4.156 4.156 0 01-2.766-1.121 3.944 3.944 0 01-1.189-3.051c.1-2.677 1.345-4.115 3.91-4.527l.1-.014a20.659 20.659 0 012.545-.108c.813.037 1.627-.017 2.427-.162.757-.169 1.48-.287 2.179-.4a21.592 21.592 0 002.515-.507l.079-.022c.114-.029.208-.057.288-.08a4.13 4.13 0 011.38-.2c.29.016.579.06.861.131.088.02.219.05.268.054a6.16 6.16 0 00.76-.152c.218-.052.429-.1.629-.14a21.373 21.373 0 015.163-.632c.6-.122 1.21-.178 1.821-.168a3.609 3.609 0 013.412 2.45c.161.474.221.975.178 1.473l-.023.6-.278.531c-1.082 2.064-3.287 2.106-4.347 2.126-.1 0-.228 0-.328.008a29.615 29.615 0 01-6.4 1.42h-.012c-.019.71-.018 1.435-.018 2.195 0 .917 0 1.865-.035 2.811a27.358 27.358 0 01-.383 3.3c-.156.862-.26 1.732-.315 2.606-.021.542 0 1.116.022 1.723.024.66.049 1.343.022 2.048a26.782 26.782 0 01-.5 3.819 22.435 22.435 0 00-.421 3.072c.004.465.047.93.129 1.387.117.682.172 1.373.163 2.065a4.288 4.288 0 01-1.227 2.854 4.615 4.615 0 01-3.353 1.318zM119.214 38.107c-.076.751-.707 1.245-.971 1.989a14.4 14.4 0 01-4.333 6.1 23.26 23.26 0 01-3.009 2.287c-.565-.022-1.152.568-1.722.688a17.67 17.67 0 01-4.509.864c-.518-.02-3.223-.736-3.214-.971.02-.518-1.028-.228-1.009-.7.016-.423-.976-1.592-1.1-2.068a11.268 11.268 0 01-.645-4.077l.123-3.2c.03-.8.673-1.576.8-2.372.181-1.029.449-1.868.723-2.894.163-.559.742-.913.764-1.478a18.43 18.43 0 011.09-2.644c.163-.559.029-.752.467-1.113a19.42 19.42 0 002.438-3.393c.451-.689.481-1.489 1.116-2.078.2-.181.818-.44.928-.86.056-.233.832-.816.981-1 .43-.436.984-.727 1.587-.834.658.025 1.4.289 2.061.314.282.01.667-.21.89.128.581.823 2.952 1.668 4.1 2.513a11.323 11.323 0 013 2.989c.175.337.018.754.244 1 .5.738.702 1.638.563 2.519a41.262 41.262 0 01-.8 6.094c-.083.754-.487 1.446-.563 2.197zm-8.724 7.581a12.723 12.723 0 003.492-2.6c.642-.777 2.154-2.132 2.285-3.069.193-1.359 1.042-2.6 1.232-3.864.342-1.293.612-2.604.81-3.927a11.91 11.91 0 00-.677-4.455 5.603 5.603 0 00-2.716-2.884 8.07 8.07 0 00-3.2-1.348c-.847-.033-2.256 1.092-3.4 1.519-.574.213-1.591 2.153-2.043 2.89a29.116 29.116 0 00-1.825 3.37c-.155.371-.649.964-.662 1.294-.006.141.038.237.034.331-.02.518-.489.452-.7 1.01a21.47 21.47 0 00-1.821 6.951 12.237 12.237 0 001.11 5.461 9.166 9.166 0 003.451.933c1.082.041 1.529-.554 2.423-.52.802.032 1.483-.649 2.207-1.092z"/><path fill="#4D352D" d="M104.89 52.694c-.107 0-.214 0-.322-.007a13.084 13.084 0 01-2.431-.5 6.517 6.517 0 01-2.408-1.08 2.85 2.85 0 01-1.845-2.051c-.07-.116-.173-.274-.248-.39a5.916 5.916 0 01-.847-1.66l-.017-.061a13.635 13.635 0 01-.72-4.82l.123-3.2c.058-.8.279-1.58.649-2.292.066-.145.156-.34.185-.427v-.01c.153-.817.347-1.626.582-2.423.063-.225.127-.456.192-.7l.015-.055a4.49 4.49 0 01.745-1.432 8.46 8.46 0 01.808-2.075c.127-.249.238-.469.311-.658 0-.024.006-.045.009-.064a3.508 3.508 0 011.224-2.24 19.058 19.058 0 001.827-2.611l.137-.219a3.05 3.05 0 00.176-.4 5.45 5.45 0 011.383-2.208c.16-.146.333-.278.515-.395a5.58 5.58 0 011.12-1.206l.106-.092.029-.037.139-.129a5.316 5.316 0 013.493-1.539c.493.03.982.1 1.463.21.145.03.328.068.462.089a3.109 3.109 0 012.979 1.116c.459.288.933.552 1.42.788.766.365 1.501.79 2.2 1.27a13.865 13.865 0 013.657 3.695l.116.2c.175.34.293.705.349 1.083a6.682 6.682 0 01.757 3.763 32.406 32.406 0 01-.6 5.054c-.075.417-.152.84-.224 1.293a7.734 7.734 0 01-.39 1.579 4.576 4.576 0 00-.155.526 4.994 4.994 0 01-.932 2.331c-.065.1-.151.231-.183.291a16.86 16.86 0 01-5.079 7.195l-.149.122c-.068.054-.189.157-.344.286-2.064 1.726-2.9 2.393-3.876 2.517l-.063.037a5.143 5.143 0 01-1.5.616c-.311.071-.669.169-1.032.269a14.15 14.15 0 01-3.806.651zm-7.098-4.43c-.005.146.003.293.025.438a2.726 2.726 0 01-.022-.435l-.003-.003zm6.638-3.934c.491.18 1.005.288 1.527.318.034-.007.169-.059.267-.1a5.311 5.311 0 011.835-.423c.109-.07.256-.173.364-.249.225-.158.45-.314.678-.454.2-.125.406-.246.6-.365a8.344 8.344 0 002.234-1.669c.205-.249.45-.511.709-.788a12.22 12.22 0 001.027-1.2 11.62 11.62 0 01.769-2.407c.183-.398.326-.814.428-1.24.106-.65.251-1.293.435-1.926a8.233 8.233 0 00.348-1.709 9.21 9.21 0 00-.525-3.463l-.015-.045c-.163-.485-.534-.785-1.641-1.5a8.538 8.538 0 00-1.675-.872c-.221.108-.531.282-.756.409-.4.224-.837.47-1.3.68-.268.376-.673 1.075-.865 1.407-.135.233-.256.44-.352.6a26.672 26.672 0 00-1.671 3.08 5.87 5.87 0 01-.4.724 3.18 3.18 0 01-1.023 2.15 18.386 18.386 0 00-1.491 5.715 10.28 10.28 0 00.496 3.33l-.003-.003zM71.961 63.883c-1.008.479-1.581 3.143-1.641 4.7a12.6 12.6 0 01-.919 3.074 32.78 32.78 0 01-1.454 4.75 5.955 5.955 0 00-.306 1.826c-.199.936-.47 1.855-.812 2.749-.475 1.348-.773 2.986-1.568 4.039-.152.276-.071.609-.269.884a1.624 1.624 0 00-.615 1.3c-.013.329-2.434 3.252-3.7 3.2-1.788-.069-2.19-3.1-2.981-4.59-.968-1.78-1.124-3.859-2.187-5.644a17.662 17.662 0 01-.882-2.813 31.439 31.439 0 01-1.992-9.5 22.99 22.99 0 01-.337-3.5c.027-.705.188-1.218.565-1.2 1.553.059 2.389 5.275 2.346 6.4-.063 1.646.759 3.562 1.116 5.319.161.713.75 1.348.914 1.967.364 1.569 1.1 3.152 1.609 4.727.42 1.335 1.325 4.762 2.359 4.849.094 0 1.228-1.319 1.42-1.406 1.151-.521 1.621-2.953 1.942-3.977.483-1.536 1.284-2.778 1.362-4.8.013-.329 1.913-6.9 2.389-8.248.846-2.418.775-6.708 2.7-6.634a1.851 1.851 0 011.587 1.616 1.03 1.03 0 01-.646.912z"/><path fill="#4D352D" d="M60.71 93.055h-.138c-3.087-.118-4.142-3.08-4.772-4.85-.128-.39-.279-.774-.451-1.147a16.366 16.366 0 01-1.211-3.153 10.958 10.958 0 00-.912-2.377 8.141 8.141 0 01-.869-2.427 7.495 7.495 0 00-.21-.792 34.1 34.1 0 01-2.158-10.205l-.035-.23a20.765 20.765 0 01-.311-3.618c.01-.617.131-1.227.359-1.8a3.069 3.069 0 012.96-1.949c2.957.113 3.913 3.6 4.227 4.75.406 1.435.63 2.915.667 4.406.064.903.246 1.793.541 2.648.179.628.363 1.276.5 1.943.039.087.14.261.209.379.299.476.53.992.689 1.531l.021.083c.23.874.515 1.732.854 2.57.237.627.482 1.276.7 1.945.055.176.113.365.176.574l.09.3c.081-.268.151-.52.2-.691.073-.266.14-.5.2-.7.173-.55.365-1.034.552-1.5a7.4 7.4 0 00.689-2.606c.04-1.027 2.429-8.717 2.539-9.029.215-.726.382-1.465.5-2.212.443-2.367 1.179-6.327 4.8-6.19a4.481 4.481 0 014.136 4.368 3.679 3.679 0 01-1.74 2.984 8.298 8.298 0 00-.548 2.63 8.638 8.638 0 01-.726 2.907c-.116.3-.226.578-.3.834-.152.482-.279.991-.413 1.529a18.03 18.03 0 01-1.157 3.537l-.014.222a7.214 7.214 0 01-.11 1.023 20.963 20.963 0 01-.919 3.141c-.108.305-.216.669-.33 1.053a12.983 12.983 0 01-1.276 3.188 3.47 3.47 0 01-.579 1.343l-.143.187c-.088.571-.449 1.5-2.125 3.173-1.522 1.513-2.85 2.228-4.162 2.228zM87.742 60.247c.161.64.278 1.29.349 1.945.383 2.323 2.413 4.662 2.828 7.364.24 1.3.552 2.587.936 3.852.176 1.562.013 3.346.712 4.786a31.367 31.367 0 014.5-.676c.316.342-.154 1.549-1.436 1.83-1.248.612-2.1.673-2.87 1.115l.163 1.891c.114 1.936-.1 3.859.012 5.843-.016.423.11.8.1 1.087-.02.517-1.558 1.306-2.311 1.277a.44.44 0 01-.414-.251c-.078-.427-.67-.968-.655-1.344.049-1.27.607-2.332.656-3.6.056-1.458-.266-2.884-.351-4.348a75.005 75.005 0 01-5.289 1.54c-1.238.329-5.212.743-5.584 1.86a62.92 62.92 0 00-2.222 7.595c-.341 1.495-.838 3.407-2.766 3.334-.706-.027-1.107-.608-1.075-1.454a8.944 8.944 0 011.251-3.157 20.77 20.77 0 001.487-4.371c.508-2.2 1.295-4.285 1.754-6.435.287-1.356 1.136-2.6 1.471-3.949a56.51 56.51 0 012.934-7.709c.678-1.718 1.129-3.632 2.173-5.053.2-.322.693-.869.708-1.245.016-.424-.2-.856-.187-1.28.03-.8 1.082-1.183 1.788-1.156.463.03.903.213 1.252.519.047.053.077.12.086.19zm-4.428 11.044c-.285.809-.52 1.633-.707 2.47a18.305 18.305 0 00-.832 2.041c-.3 1.779-1.351 3.294-1.514 5.078a10.568 10.568 0 002.944-.594c2.309-.005 4.149-1.3 6.411-1.309.137-3.575-1.344-6.742-1.636-10.193-.029-.472-1.1-3.152-1.81-3.179-.235-.009-.345.411-.552.874a31.379 31.379 0 00-1.473 2.771c-.228.7-.506 1.381-.831 2.041z"/><path fill="#4D352D" d="M74.232 98.001h-.233a3.844 3.844 0 01-3.625-4.206 8.83 8.83 0 011.271-3.745c.092-.172.179-.333.25-.479a18.088 18.088 0 001.281-3.791c.262-1.129.58-2.2.889-3.232.328-1.1.638-2.139.858-3.169.214-.893.525-1.76.926-2.585.227-.466.415-.95.564-1.447a42.599 42.599 0 012.365-6.458c.235-.546.468-1.089.693-1.63.152-.385.309-.84.476-1.322a15.99 15.99 0 011.961-4.219c.042-.063.084-.125.128-.186a4.255 4.255 0 01-.073-.935c.092-2.393 2.43-3.794 4.54-3.706a4.731 4.731 0 013.1 1.367c.337.369.578.816.7 1.3a9.43 9.43 0 01.316 1.626c.022.176.043.35.075.516l.011.065a10.85 10.85 0 001.072 2.615 16.05 16.05 0 011.76 4.777c.135.82.324 1.63.567 2.426.109.389.218.779.318 1.173l.045.178.021.182c.059.528.085 1.043.109 1.541l.023.454c.78-.14 1.57-.22 2.363-.24l1.208-.037.821.887a3.206 3.206 0 01.631 3.184 4.56 4.56 0 01-3.1 2.95c-.351.162-.676.29-.97.4.06 1.064.034 2.09.007 3.083-.025.944-.048 1.836 0 2.717l.008.126v.095c.005.061.017.119.025.174.056.312.08.628.073.945-.1 2.491-3.335 3.887-5.063 3.827a3.073 3.073 0 01-2.816-2.021l-.041-.061a3.724 3.724 0 01-.763-2.266c.049-.802.187-1.596.412-2.368.122-.402.204-.816.244-1.234.009-.244 0-.5-.012-.76-.739.209-1.51.417-2.32.624-.366.1-.856.189-1.424.294-.863.146-1.718.338-2.561.576a58.805 58.805 0 00-1.888 6.581c-.307 1.362-1.23 5.413-5.222 5.414zm10.912-23.462c-.148.467-.34.919-.574 1.349a4.16 4.16 0 00-.185.385c-.074.427-.176.85-.305 1.263.53-.118 1.054-.265 1.569-.438.377-.119.771-.244 1.185-.357-.145-1-.387-2.015-.637-3.064a76.48 76.48 0 01-.354-1.526l-.121.256a5.914 5.914 0 00-.272.963c-.081.351-.172.747-.306 1.169zM107.706 64.263a5.473 5.473 0 00-.357 1.919c-.016.423.062.85.045 1.273 0 2.451-.656 4.828-.7 7.276.043.298.063.599.06.9a2.59 2.59 0 01-.242 1.4c-.61 1.154-.48 2.667-.671 3.979-.313 2.014-1.006 4.108-.993 6.229-.034.894-.664 1.341-.662 2.518-.02.518-.364.882-.336 1.4-.029.753-.083.939-1.033 1.138a6.237 6.237 0 01-1.233.189.828.828 0 01-.907-.931c-.011-.942.629-1.671.617-2.567.018-.471.407-.786.513-1.111.973-2.036.8-4.869 1.311-7.159.9-3.923.921-8.069 1.639-12.046.047-.151.069-.31.065-.468-.027-.519-.148-1.043-.174-1.608.018-.471.177-.936.148-1.408.009-.235-.027-.52-.018-.755-.018-1.98.7-2.188 1.967-2.139 1.082.042 1.393.525 1.365 1.278-.011.284-.395.458-.404.693z"/><path fill="#4D352D" d="M101.646 95.141h-.162a3.45 3.45 0 01-3.458-3.507 6.063 6.063 0 01.487-2.335c.045-.117.1-.271.128-.354v-.054c.042-.757.3-1.486.744-2.1l.026-.056c.402-1.139.632-2.331.681-3.538.085-1.026.23-2.046.435-3.055.438-2.114.742-4.254.912-6.406.183-1.807.371-3.676.706-5.532l.009-.05c-.012-.1-.028-.217-.044-.336-.044-.321-.095-.683-.113-1.1l-.005-.11v-.109c.016-.316.052-.63.109-.942.014-.083.032-.165.039-.247l-.005-.089.005-.132c0-.03 0-.083-.007-.137a7.454 7.454 0 01-.013-.539 4.89 4.89 0 011.266-3.674 4.483 4.483 0 013.455-1.093 3.764 3.764 0 013.914 4.03 3.105 3.105 0 01-.657 1.769 3.666 3.666 0 00-.1.841c0 .064.008.212.018.343.025.29.035.582.03.873a29.345 29.345 0 01-.378 4.1c-.16.995-.267 1.997-.322 3.003.04.334.059.67.057 1.006a5.076 5.076 0 01-.566 2.693 6.16 6.16 0 00-.239 1.647c-.032.463-.064.942-.138 1.444-.121.78-.282 1.524-.437 2.242a17.182 17.182 0 00-.528 3.587v.118a5.27 5.27 0 01-.523 2.019c-.137.311-.137.327-.137.394v.106a4.48 4.48 0 01-.341 1.5 3.47 3.47 0 01-3.136 3.534l-.066.013c-.089.016-.179.036-.268.055a6.453 6.453 0 01-1.378.178zM41.215 131.001c.054-1.411.39-2.812.446-4.27.177-4.611.264-9.366.445-14.071.052-1.365.3-2.816.352-4.274.058-1.506-.453-2.939-.4-4.209.02-.517.336-1.4 1.089-1.371.47.018.831.456 1.254.472.517.02 2.648-1.5 3.261-1.477.376.014.8.125 1.219.141.376.014 1-.245 1.269.1.4.533.785.407 1.486.575 1.585.438 2.973 1.1 4.509 1.587 1.815.588 3.384 2.674 4.946 3.723.6.4.834.362.948 1.073.046.356.197.69.434.959a7.6 7.6 0 011.27 5c-.05 1.317-.178 3.433-.732 4.354a26.02 26.02 0 01-5.991 7.592 31.176 31.176 0 01-5.309 3.283 17.654 17.654 0 01-5.07 1.974 8.399 8.399 0 01-1.553-.06 6.335 6.335 0 00-2.333.618 1.418 1.418 0 01-1.527-.719 6.984 6.984 0 01-.013-1zm12.394-4.991c.44-.34.849-.718 1.221-1.131.586-.543 1.243-.471 1.693-1.16.65-1.01 1.43-1.931 2.319-2.738.391-.362.41-.88.707-1.245a10.176 10.176 0 001.747-5.021c.157-4.093-3.166-5.917-6.268-8.58a11.562 11.562 0 00-5.313-1.475 24.59 24.59 0 00-3.743.517c-1.326.184-1.21 3.3-1.262 4.663-.042 1.082-.036 2.166-.077 3.248-.079 2.07-.347 4.133-.426 6.2-.05 1.317.131 2.738.081 4.055a58.237 58.237 0 01-.481 6.39c2.146.094 4.27-.464 6.092-1.6a29.718 29.718 0 003.71-2.123z"/><path fill="#4D352D" d="M42.473 135.4a4.158 4.158 0 01-3.538-2.073l-.289-.495-.059-.57a9.396 9.396 0 01-.022-1.363c.032-.83.139-1.608.243-2.36.093-.671.18-1.306.2-1.91.088-2.28.154-4.647.219-6.936.066-2.339.134-4.757.226-7.135.029-.758.108-1.511.183-2.24.074-.71.144-1.38.169-2.035a9.407 9.407 0 00-.181-1.755 12.057 12.057 0 01-.223-2.453 3.866 3.866 0 013.841-3.921c.393.016.78.096 1.146.238l.226-.125a6.141 6.141 0 013.145-1.117c.293.016.585.05.875.1.078.012.167.026.239.035a3.511 3.511 0 012.917.659c.134.023.289.052.458.093l.088.022c1.009.279 1.908.623 2.776.956.629.241 1.222.468 1.823.657a11.696 11.696 0 014.176 2.819c.456.443.942.854 1.453 1.232.076.051.145.09.2.125a3.535 3.535 0 011.853 2.552c1.675 2.105 1.828 5.057 1.767 6.654-.106 2.788-.414 4.4-1.057 5.531a28.655 28.655 0 01-6.554 8.291c-1.28 1.081-2.688 2-4.192 2.737-.535.286-1.04.556-1.523.845a20.366 20.366 0 01-5.924 2.3 5.504 5.504 0 01-1.685.023c-.151-.014-.31-.03-.475-.037-.092 0-.128 0-.511.161-.325.142-.66.263-1 .361a3.64 3.64 0 01-.99.134zm4.993-27.78c-.064.572-.079 1.322-.087 1.714 0 .223-.009.428-.015.605-.02.524-.029 1.047-.037 1.57-.009.559-.018 1.119-.04 1.678-.042 1.095-.133 2.176-.22 3.221s-.168 2.007-.206 2.982c-.021.545.008 1.155.039 1.8.035.729.071 1.482.041 2.254-.041 1.06-.082 2.138-.153 3.225a15.77 15.77 0 001.873-.886l.542-.281a22.902 22.902 0 002.854-1.643l.116-.08c.128-.111.25-.23.364-.356.163-.171.326-.338.493-.493.428-.387.918-.7 1.45-.924a16.384 16.384 0 012.353-2.785c.152-.394.358-.764.613-1.1a7.657 7.657 0 001.2-3.51c.076-1.983-1.224-3.123-3.721-5.131-.492-.4-1-.8-1.515-1.242a9.872 9.872 0 00-3.8-.931 8.29 8.29 0 00-1.753.233l-.391.08zM80.908 102.13c.161.639.278 1.289.349 1.945.382 2.324 2.414 4.663 2.828 7.364.24 1.301.552 2.587.936 3.852.176 1.562.013 3.346.712 4.786a31.353 31.353 0 014.5-.676c.317.342-.153 1.549-1.436 1.829-1.248.612-2.1.674-2.87 1.116l.163 1.891c.114 1.936-.1 3.859.012 5.843-.016.424.111.805.1 1.088-.02.518-1.558 1.306-2.311 1.278a.443.443 0 01-.415-.251c-.078-.427-.669-.968-.655-1.344.049-1.27.607-2.332.656-3.6.056-1.459-.266-2.884-.351-4.348a76.467 76.467 0 01-5.289 1.541c-1.238.329-5.211.743-5.584 1.859a62.977 62.977 0 00-2.222 7.6c-.341 1.494-.838 3.407-2.766 3.333-.706-.027-1.108-.608-1.075-1.455a8.95 8.95 0 011.251-3.156 20.76 20.76 0 001.487-4.371c.509-2.2 1.3-4.285 1.754-6.435.287-1.355 1.136-2.595 1.471-3.948a56.487 56.487 0 012.933-7.709c.679-1.717 1.129-3.632 2.173-5.052.2-.322.693-.869.708-1.245.016-.423-.2-.856-.187-1.279.031-.8 1.082-1.184 1.788-1.157.463.031.903.213 1.252.519a.357.357 0 01.088.182zm-4.428 11.045c-.285.808-.52 1.633-.707 2.47a18.298 18.298 0 00-.832 2.041c-.3 1.779-1.351 3.294-1.514 5.078a10.58 10.58 0 002.944-.595c2.309-.006 4.149-1.3 6.411-1.309.137-3.575-1.344-6.742-1.636-10.192-.029-.472-1.1-3.152-1.81-3.179-.235-.009-.345.411-.552.874a31.188 31.188 0 00-1.473 2.771 15.544 15.544 0 01-.831 2.041z"/><path fill="#4D352D" d="M67.398 139.883h-.233a3.686 3.686 0 01-2.859-1.513 4.254 4.254 0 01-.765-2.693 8.825 8.825 0 011.271-3.745c.092-.172.179-.333.25-.479a18.138 18.138 0 001.281-3.791c.261-1.128.58-2.2.888-3.229.329-1.1.639-2.141.859-3.172a12.69 12.69 0 01.926-2.583c.227-.467.416-.951.564-1.448a42.627 42.627 0 012.366-6.458c.235-.546.468-1.089.693-1.63.152-.386.31-.842.477-1.324a15.987 15.987 0 011.96-4.217c.042-.063.084-.125.128-.186a4.22 4.22 0 01-.072-.935 3.682 3.682 0 012.026-3.119 4.982 4.982 0 012.516-.587 4.734 4.734 0 013.1 1.368c.337.369.577.816.7 1.3.154.533.26 1.078.318 1.63.023.176.044.35.075.515l.012.066c.242.915.603 1.795 1.073 2.616a16.052 16.052 0 011.76 4.777c.135.82.325 1.631.567 2.426.109.389.218.779.318 1.172l.045.177.021.182c.06.528.085 1.043.109 1.541l.023.454c.78-.14 1.57-.22 2.363-.24l1.208-.037.821.887a3.202 3.202 0 01.632 3.183 4.566 4.566 0 01-3.1 2.951c-.351.162-.676.29-.97.4.06 1.064.033 2.09.008 3.083-.025.944-.048 1.836 0 2.717l.007.126v.094c.006.061.017.118.026.173.056.312.08.629.073.946-.1 2.491-3.335 3.879-5.063 3.828a3.068 3.068 0 01-2.816-2.022l-.04-.06a3.722 3.722 0 01-.763-2.266c.049-.802.187-1.596.412-2.368.123-.402.204-.816.244-1.234.009-.245 0-.5-.012-.76-.737.209-1.508.417-2.319.624-.367.1-.857.189-1.423.294-.864.146-1.719.338-2.562.576a58.641 58.641 0 00-1.888 6.581c-.32 1.357-1.243 5.409-5.235 5.409zm10.911-23.461c-.148.467-.34.919-.574 1.349-.069.125-.13.254-.186.385a9.901 9.901 0 01-.3 1.262 15.24 15.24 0 001.569-.438c.378-.119.772-.244 1.185-.357-.145-1-.387-2.015-.637-3.064a75.68 75.68 0 01-.354-1.526l-.12.256a5.917 5.917 0 00-.272.964c-.086.351-.178.747-.311 1.169zM98.109 125.405c-.152 1.5-.716 2.706-.783 4.446l-.033.847c-.032.847-.518 3.7-2.824 3.614a.945.945 0 01-.856-1.022c.014-.376.17-.747.184-1.124.016-.424-.022-.661-.017-.8.009-.235.108-.373.6-1.013.447-.6.4-1.917.571-2.617a63.912 63.912 0 001.737-10.912c.073-1.929 1-3.966 1.077-5.989.027-.706-.328-1.285-.31-1.755.034-.895.9-1.285 1.505-2.393.508-.97 1.169-2.217 2.109-2.181.659.026 1.32 1.229 2.684 1.281a23.493 23.493 0 003.556-.57 14.71 14.71 0 012.5-.093c4.375.167 8.568 1.411 8.413 5.458-.067 1.74-1.236 2.732-2.1 4.254-.453.783-1.17 1.039-1.809 1.721 0 0-.745 1.008-1.27 1.176-2.195.717-4.51 2.136-6.492 2.2-1.385-.03-2.77.012-4.151.124a1.552 1.552 0 00.715 1.016c.317.342-.166.653 1.357 1.466.358.485.53.915 1.236.942.235.009.99 1.216 1.265 1.415a20.205 20.205 0 005.431 3.365 2.256 2.256 0 011.715.801 2.251 2.251 0 01.493 1.828c-.043 1.129-1.129 1.181-1.646 1.162-1.553-.059-1.757-2.093-3.487-2.442-1.077-.183-2.3-1.408-3.22-2.055-1.837-1.248-3.185-2.949-4.917-4.476-.5-.4-.646-.355-.954-.932a5.456 5.456 0 00-1.256-1.65c-.974 1.188-.869 3.454-1.023 4.908zm10.578-17.875c-2.446-.094-4.515 1.005-6.933 1.43-1.139.192-2.2 5.852-2.309 8.628.715.106 1.437.165 2.16.177 3.243.201 6.48-.491 9.358-2 1.3-.751 1.243-.471 1.931-1.2l1.265-1.035a7.485 7.485 0 001.346-3.153 1.406 1.406 0 00-.8-1.256c-1.131-1.215-4.699-1.541-6.017-1.591h-.001z"/><path fill="#4D352D" d="M94.58 136.967h-.207a3.5 3.5 0 0 1-2.593-1.31 3.7 3.7 0 0 1-.812-2.465c.018-.354.07-.705.157-1.049.01-.044.021-.088.029-.131 0-.124 0-.217-.008-.288a5.035 5.035 0 0 1-.01-.455c.054-.859.4-1.674.981-2.31.034-.182.065-.474.086-.664.034-.383.091-.763.171-1.139l.11-.509a58.509 58.509 0 0 0 1.565-9.922c.08-1.173.283-2.335.606-3.466.233-.808.39-1.636.47-2.473-.013-.062-.047-.18-.072-.269a4.684 4.684 0 0 1-.235-1.537 4.613 4.613 0 0 1 1.358-2.954c.174-.184.33-.385.463-.6.681-1.3 1.944-3.677 4.546-3.572a4.037 4.037 0 0 1 2.377 1.014c.114.087.278.214.37.267a9.013 9.013 0 0 0 1.581-.271c.5-.123 1.007-.219 1.518-.286a17.37 17.37 0 0 1 2.893-.107c2.438 0 4.845.541 7.049 1.583a6.931 6.931 0 0 1 3.913 6.627 7.93 7.93 0 0 1-1.764 4.428c-.247.355-.48.69-.672 1.03a6.043 6.043 0 0 1-1.727 1.85 5.7 5.7 0 0 0-.384.309 5.571 5.571 0 0 1-2.468 1.959c-.639.209-1.343.512-2.088.832-1.114.517-2.27.938-3.455 1.259.083.1.162.209.24.31.078.101.155.206.222.287a18.633 18.633 0 0 0 4.253 2.708 4.813 4.813 0 0 1 2.974 1.53 5.218 5.218 0 0 1 1.265 3.808 3.9 3.9 0 0 1-1.378 2.83 3.881 3.881 0 0 1-3.022.881 4.854 4.854 0 0 1-3.638-2.093c-.111-.134-.269-.326-.364-.417a8.653 8.653 0 0 1-3.481-1.964c-.232-.186-.451-.364-.654-.507a23.873 23.873 0 0 1-3.445-3.024l-.6-.6c-.094.66-.237 1.255-.367 1.79a10.143 10.143 0 0 0-.352 2.062l-.033.847a8.258 8.258 0 0 1-.849 3.264 4.991 4.991 0 0 1-4.519 2.907zm7.791-21.839h.106a14.63 14.63 0 0 0 7.173-1.663c.398-.232.807-.444 1.227-.633l.022-.01.072-.076.247-.231 1.044-.854c.136-.253.257-.514.363-.781a13.188 13.188 0 0 0-4.034-.7 11.138 11.138 0 0 0-3.479.662c-.6.179-1.219.361-1.875.518a23.196 23.196 0 0 0-.871 3.769l.005-.001z"/><path fill="#4D352D" fill-rule="evenodd" d="M86.91 181.594c.051-.035.141-.049.12-.119l.072-.024.072-.024c.17-.034.263-.107.239-.239-.01-.045-.017-.088.048-.1a.21.21 0 0 0 .168-.215l.072-.024c-.01-.1.057-.171-.024-.31.129-.055-.036-.257.048-.335a.354.354 0 0 1 0-.239l-.024-.072c.128-.007-.013-.43-.119-.359l-.024-.072-.024-.072-.1-.286c.155-.062-.071-.314-.072-.454l-.286-.86-.143-.43-.167-.5c.122-.027-.03-.48-.143-.43l-.072-.215c.159-.039-.052-.265-.048-.382l-.072-.215c.16-.04-.052-.265-.047-.382-.058-.168.053-.252-.072-.454-.01-.1.057-.17-.024-.31.087-.1.027-.265.024-.406 0-.061-.045-.142.024-.167.16-.039-.052-.265-.048-.382a.492.492 0 0 0-.047-.382c-.027-.093.059-.13 0-.239.042-.018.081-.039.048-.1a.333.333 0 0 0 .048-.334l-.024-.072c.086-.1.027-.265.024-.406l-.048-.143c.043-.019.081-.039.048-.1.043-.019.081-.039.048-.1a.332.332 0 0 0 .048-.334c.051-.035.063-.088.024-.167.095-.052.029-.184.072-.263a.206.206 0 0 0 .072-.263c.048-.135.149-.244.1-.43a.384.384 0 0 0 .144-.287c-.024-.072.03-.1.024-.167.084-.1.191-.182.12-.358a.675.675 0 0 0 .191-.382c-.017-.108.078-.16.072-.263a.57.57 0 0 0 .287-.573c0-.118.046-.216.048-.334a.32.32 0 0 0 .1-.43c.075-.042.085-.117.1-.191a.221.221 0 0 0 .1-.191l.072-.024c-.109-.214.009-.314 0-.477a.412.412 0 0 0 .1-.43c.1-.049.008-.195-.024-.31l.072-.024c.1-.049.008-.2-.024-.31-.092-.134-.068-.5-.238-.478l-.072.024-.023-.072c-.049-.181-.136-.285-.262-.311-.019-.042-.039-.081-.1-.048l-.382-.191a.332.332 0 0 0-.334-.048c-.035-.051-.088-.064-.167-.024-.04-.08-.139-.04-.239 0-.007-.128-.429.013-.358.119l-.072.024c-.1.048-.273.062-.263.167-.042.019-.081.039-.048.1l-.143.048c-.1.031-.107-.1-.191-.1-.051-.1-.158-.082-.215-.168-.024-.072-.087-.066-.119-.119-.032-.053-.088-.063-.167-.024a.412.412 0 0 0-.43-.1c-.04-.08-.139-.04-.239 0-.035-.051-.088-.064-.167-.024-.071-.108-.581.062-.573.19-.043.019-.081.039-.048.1l-.072.024c-.125.077-.464.046-.311.262-.043.019-.081.039-.048.1a.22.22 0 0 0-.1.191c-.072.024-.066.087-.12.119-.1.051-.081.158-.167.215-.17.035-.264.107-.239.239.024.072-.03.1-.024.167l-.072.023a.207.207 0 0 0-.123.077.207.207 0 0 0-.044.138c-.2.041-.2.177-.12.358-.118.04.026.212-.072.263-.171.022-.146-.344-.239-.478.15-.084-.088-.363-.1-.525l-.167-.5-.262-.788c-.083-.112-.053-.45-.214-.406l-.024-.072c-.083-.112-.054-.45-.215-.406l-.143-.43c.16-.039-.052-.265-.048-.382.131-.154-.139-.508-.167-.74-.048-.1-.062-.273-.167-.263l-.119-.358-.024-.072c.1-.049.008-.2-.023-.311l-.1-.286c.128-.007-.013-.43-.119-.359l-.072-.215c.144-.107-.106-.411-.119-.6-.048-.1-.062-.273-.167-.262l-.1-.287-.119-.358c.1-.094-.078-.63-.214-.645l-.072-.215-.072-.215c.15-.084-.088-.363-.1-.526-.048-.1-.063-.273-.167-.263l-.072-.215-.143-.43c.128-.007-.013-.43-.119-.358l-.143-.43-.072-.215c.1-.048.008-.195-.024-.31-.083-.112-.053-.45-.215-.406l-.119-.358-.1-.287c.1-.049.008-.195-.024-.31-.1-.157-.083-.55-.262-.549l-.119-.358c.1-.049.008-.2-.024-.311l-.119-.358-.071-.215c.133.013 0-.376-.1-.286l-.048-.143c.253.038.065-.434-.048-.382-.074-.091-.039-.4-.191-.335l-.071-.215c0-.231-.049-.459-.143-.669l-.024-.072-.048-.143-.19-.573c-.092-.134-.068-.5-.239-.478l-.024-.072a.498.498 0 0 0-.382.048c-.121.059-.383.047-.239.239a.202.202 0 0 1-.145.013.205.205 0 0 1-.118-.085l-.024-.072c.05-.035.14-.049.119-.119.16-.039.209-.134.144-.286-.016-.088.087-.116.191-.143-.028-.182-.182-.112-.191-.334-.01-.045-.017-.089.048-.1l.072-.023a.206.206 0 0 0 .072-.263c-.056-.206-.271-.1-.334-.286-.124-.209-.089-.3-.191-.335-.056-.105-.174 0-.215.072l-.215.072-.072-.215.072-.024c.211-.077.05-.491-.19-.334-.019-.043-.039-.082-.1-.048-.1-.141.127-.3-.143-.191l-.048-.143c.085-.037.162-.078.1-.191-.141.029-.132.133-.263.167-.05.035-.14.049-.119.119-.045.01-.088.017-.1-.048-.108-.359-.537.054-.143.048.044.11.2 0 .215.167a.354.354 0 0 1 0 .239l-.072.024-.072.024c-.017-.124-.161-.161-.167-.024l-.072.024c-.029-.141-.133-.131-.167-.263.448-.26-.544-.161-.263.167l.143-.048c-.007.051-.087.335.1.287l.143-.048.048.143c-.079.04-.04.139 0 .239.01.045.017.088-.048.1-.081.039-.208.055-.191.143a.614.614 0 0 0 0 .477c-.152.064-.117-.243-.191-.335-.044-.11-.073-.251-.215-.167l.048.143c-.118.041.026.212-.072.263l-.072.023-.072.024-.024-.072c0-.173-.225-.431-.119-.119l-.072.024c-.072.182.037.089.1.286l-.072.024a.21.21 0 0 1-.072.263c-.311.264-.212-.291-.406-.263l-.024-.072c.043-.019.081-.039.048-.1.272-.019.045-.275-.023-.311l.072-.024.215-.072-.048-.143-.215.072c-.061 0-.1-.032-.119-.119l.143-.048c.05-.035.141-.049.119-.119-.061 0-.1-.032-.119-.119l.072-.024c.32-.1-.067-.381-.19-.335-.051.035-.064.088-.024.167l-.143.048c-.034-.131-.127-.144-.262-.071l-.072.024c-.117-.178.095-.192.048-.335.04-.068.027-.452-.143-.429l-.024-.072c-.052-.094-.184-.029-.263-.072l-.048-.143c-.018-.042-.039-.081-.1-.048l-.143.048-.024-.072-.1-.287-.143.048-.143.048c-.078-.35-.151-.112-.143.048.014.1-.063.184.119.12.313-.116.051.178.191.335l-.072.024-.072-.215c-.1.048-.273.063-.263.167-.08.04-.04.139 0 .239l.072.215c.01.045.017.088-.048.1-.09.035-.069.125-.191.143-.034-.051-.088-.063-.167-.024-.007-.092.32-.306.048-.335-.124-.225-.49.217-.168.215l.048.143c-.043.018-.081.039-.048.1l-.072.024c-.035-.09-.125-.069-.143-.191l-.072-.215c.042-.019.081-.039.048-.1.211-.014-.164-.321.048-.334.095-.031.108.1.191.1.244.036.1-.39-.072-.215-.071.033-.248-.261-.239 0 .017.108-.078.16-.072.263.055.171-.323.429-.072.5l.048.143-.072.024-.143.048.072.215c.039.081.055.208.143.191-.027-.093.059-.13 0-.239l-.024-.072.143-.047.143.43.024.072c-.155.062.071.314.072.454.023.072.086.066.119.119-.08.04-.04.139 0 .239l-.143.048-.048-.143c-.034-.17-.107-.263-.239-.239-.048-.1-.062-.273-.167-.263l-.024-.072c.133.013 0-.377-.1-.286-.034-.132-.127-.144-.263-.072l-.119-.358c.125-.008.151-.347-.024-.311-.035-.05-.049-.14-.119-.119l-.024-.072-.024-.072c.011-.262-.25.022-.239-.239.281-.017.033-.368-.1-.286-.092-.134-.068-.5-.239-.478-.048-.1-.062-.273-.167-.263.126.2-.151.2-.024.406.008.139-.087-.006-.167-.024-.048-.1-.062-.273-.167-.263l-.024-.072c-.232-.11.063-.169-.048-.382-.292.013-.06.288-.191.382 0-.175-.307-.267-.167-.024-.043.018-.081.039-.048.1-.079.04-.04.139 0 .239l-.072.024c.01.1-.057.171.024.31.166.2-.214.132-.048.335l.048.143c-.09.034-.068.125-.191.143-.074-.091-.04-.4-.191-.335-.12.059-.122.178-.048.335.009.1-.057.171.023.31-.183.321-.515.331-.335.907-.043.018-.081.039-.048.1l.143.43.024.072c-.16.177.136.432.239.478-.05.035-.141.049-.119.119l.024.072c-.1.049-.008.2.023.311.048.1.063.273.167.263.018.088-.073.2.072.215.084.181-.259.149-.119.358l.024.072c-.138.13.123.459.143.669.18.215-.21.445.1.525.072-.024.1.03.167.024l.024.072.024.072.048.143c-.08.04-.04.139 0 .239l.048.143c-.072.025-.048.155.048.143-.01-.045-.017-.089.048-.1l.048.143.024.072-.072.024-.072.024c-.108.071.062.581.19.573.061 0 .1.032.119.119.055.089.148.1.167.263l.024.072c-.143.068.085.321-.024.406-.043.019-.082.039-.048.1-.16.1.1.339.191.335l.047.143-.143.048c.079.161.2.231.239.478l.167.5.1.286.1.287c.048.1.063.273.167.263.019.043.039.081.1.048l.024.072c.033.176-.024.306.1.525l.072-.024.19.573c-.116.2.172.6.215.884.077.125.046.464.263.311l.024.072.023.072c-.042.019-.081.039-.048.1-.121.028.029.481.143.43l.024.072c.047.2.136.387.263.549l-.072.024c-.133-.013 0 .376.1.286.035.051.049.141.119.119l.215.645c.083.112.053.45.215.406l.072-.024.072.215-.072.023c-.1.094.078.63.214.645l.024.072c-.133-.013 0 .376.1.286l.072.215c.048.1.062.273.167.263l.1.286.143.43c-.115.049.046.531.167.5l.191.573.119.358c.074.091.039.4.191.335.083.112.053.45.215.406l.072.215a1.142 1.142 0 0 0 .286.86l.19.573c.048.1.063.273.167.262.048.1.063.273.167.263.074.091.04.4.191.334l.1.287c.137.208.028.292-.024.406.048.1.063.273.167.263l.167.5c.117.2.114.648.31.693l.19.573c-.093.026-.13-.059-.239 0a.222.222 0 0 0-.083-.074.216.216 0 0 0-.108-.026 1.302 1.302 0 0 0-.31-.215c-.019-.042-.039-.081-.1-.048-.048-.183-.185-.188-.31-.215-.035-.051-.049-.141-.12-.12a1.546 1.546 0 0 0-.573-.287c-.042-.075-.117-.085-.191-.1-.131-.135-.394-.009-.525-.144-.035-.051-.088-.063-.168-.024-.112-.094-.33.023-.477 0-.028-.122-.481.029-.43.143l-.143.048a1.7 1.7 0 0 1-.382.286.22.22 0 0 0-.1.191c-.094.032-.024.148-.1.191-.131-.19-.149.153-.358.119a.207.207 0 0 0-.123.077.207.207 0 0 0-.044.138c-.142.048-.026.226-.239.239l.048.143a.33.33 0 0 0-.048.335l.024.072c-.043.019-.081.039-.048.1-.159.04.052.265.048.382.076.246.144.508.334.525l.119.358c.092.134.068.5.238.478.035.17.107.263.239.239.045-.01.088-.017.1.048.02.239.243.073.263.311a.21.21 0 0 0 .076.124.21.21 0 0 0 .139.043c.082.115.136.285.262.311a.21.21 0 0 0 .215.168c.049.182.187.184.263.31a.952.952 0 0 0 .453.406c.042.194.129.3.311.215l.024.072c.108-.017.16.078.263.072l.024.072c.138-.037.128.22.286.144.075.208.252.211.406.263.048.183.185.188.31.215l.072-.024c.1.229.318.24.5.311.137.243.36.313.549.454.143.072.228.259.406.263.129.097.265.185.406.263.024.072.087.066.119.119a.21.21 0 0 0 .076.124.21.21 0 0 0 .139.043c.108-.017.16.078.262.072.12.118.226.265.406.263.024.072.087.066.119.119.054.13.127.224.239.239.216.124.356.4.668.335.173.092.3.267.5.31a.388.388 0 0 0 .127.104c.05.024.104.038.159.04.035.05.049.141.119.119.143.072.229.259.406.263a.226.226 0 0 0 .191.1c.047.183.184.188.31.215a.68.68 0 0 0 .382.191c.075.208.252.212.406.263a.21.21 0 0 0 .215.168c.045-.011.088-.018.1.048a.21.21 0 0 0 .076.124.21.21 0 0 0 .139.043c.176-.033.234.169.382.191a.21.21 0 0 0 .076.124.21.21 0 0 0 .139.043c.042.075.117.085.191.1a.381.381 0 0 1 .286.143.184.184 0 0 0 .1.156.185.185 0 0 0 .185-.012c.15.219.388.26.601.358.167.1.3.269.549.215.023.072.086.066.119.119.1.084.182.191.358.119.045-.01.088-.017.1.048l.024.072c.072-.024.1.03.167.024a.334.334 0 0 0 .335.048c.04.08.139.04.239 0 .04.079.139.04.239 0 .04.08.139.04.238 0-.013.133.377 0 .287-.1.1-.048.273-.062.262-.167.051-.034.141-.049.12-.119l.215-.072c.034.051.088.064.167.024.108.1.277.083.478 0 .007.128.429-.013.358-.119l.143-.047c.063.108.573-.062.565-.19zm-13.45-32.051l-.143.048-.024-.072c-.055-.089-.147-.1-.167-.263.042-.018.081-.039.048-.1.115-.03.245-.092.262.072.059.138-.028.19.024.315zm-.5-1.5l.024.072c.056.105.174 0 .215-.072.039.079.027.133-.024.167-.051.034-.047.1-.119.119-.088.016-.116-.087-.143-.191l-.024-.072.071-.023zm-2.1.619l.048.144c-.051.034-.064.088-.024.167l-.072.024c-.024-.072-.086-.066-.119-.12.133.013 0-.376-.1-.286l-.048-.143c.25-.213.13.296.313.21l.002.004zm9.343 31.473a.296.296 0 0 1-.002-.003l.002.003zm-.006-.006l-.013-.011.013.011zm-.018-.015h-.009.009zm-10.364-32.451c.118-.041-.026-.212.072-.262.252-.186.243.151.43.1-.143-.34-.267-.178-.167-.5l.143-.048.048.143c.109.18.1.6.286.621.058.109-.027.146 0 .239l-.072.024c-.1.167-.093.024-.286.1.01.1-.057.171.024.31l.048.144.023.072c.007.092-.2.366.048.382.052.125-.015.191-.167.215-.055-.089-.148-.1-.167-.262-.089-.244-.208-.5-.048-.621.212-.013-.163-.321.048-.334.311 0 .2-.329-.048-.144-.072.024-.066.087-.119.119-.073-.094-.166-.145-.239-.239l.143-.059zm10.18 32.538v-.009.009zm.05.078h-.005.005zm-.016-.011l-.006-.005.006.005zm-.014-.015v-.007.007zm-.011-.021v-.008.008zm-9.909-33.627l.048.143c-.088.017-.2.08-.239 0l-.024-.072-.024-.072c.118-.197.085-.008.239.001zm5.92 2.961l.072.215c.018.118-.141.1-.215.072l-.023-.072c-.024-.072.029-.1.024-.167.081-.017.075-.139.142-.048zm-1.408-2.795c.016.088-.087.116-.191.143l-.048-.143c.072-.024.066-.087.119-.119.062 0 .108.035.12.122v-.003zm-2.364 1.026l.023.072.048.143-.072.024c-.159.04.052.265.048.382-.061 0-.142.045-.167-.024-.019-.042-.039-.081-.1-.048-.035-.09-.125-.068-.143-.191l.143-.048c.08-.04.04-.139 0-.239l.22-.071z" clip-rule="evenodd"/><path fill="#946037" d="M337.027 314.942s20.985-30.41 17.229-34.827c-3.756-4.417-31.919 15.827-31.919 15.827l14.69 19z"/><path fill="#4D352D" d="M337.026 317.048a2.11 2.11 0 01-1.861-1.128 2.104 2.104 0 01.13-2.172c.049-.07 4.92-7.142 9.469-14.826 7.461-12.6 7.915-16.392 7.846-17.33-.863-.051-4.427.35-15.692 7.227-6.948 4.242-13.288 8.79-13.351 8.836a2.119 2.119 0 01-1.578.386 2.099 2.099 0 01-1.383-.852 2.112 2.112 0 01-.069-2.355c.149-.236.344-.439.572-.599.071-.051 7.2-5.164 14.7-9.665a83.708 83.708 0 0111.093-5.8c2.873-1.157 6.924-2.418 8.963-.021 1.722 2.025 2.066 6.032-6.994 21.5-4.761 8.128-10.054 15.812-10.107 15.889a2.1 2.1 0 01-1.738.91zM156.022 291.681a.85.85 0 001.02-.813v-.011c0-4.412-3.254-7.988-7.268-7.988-4.014 0-7.267 3.576-7.267 7.988v.011a.855.855 0 00.32.645.84.84 0 00.7.168 32.389 32.389 0 0112.495 0zM272.888 291.681a.85.85 0 001.021-.813v-.011c0-4.412-3.254-7.988-7.268-7.988-4.014 0-7.267 3.576-7.267 7.988v.011a.851.851 0 00.651.808c.121.028.247.03.369.005a32.384 32.384 0 0112.494 0z"/></g><defs><clipPath id="clip0"><path fill="#fff" d="M0 0h364.245v400H0z"/></clipPath></defs></svg>