<svg xmlns="http://www.w3.org/2000/svg" width="272" height="256" fill="none" viewBox="0 0 272 256"><path fill="#C29180" d="M103.609 84.022a12.377 12.377 0 0 0-1.7-.59 5.812 5.812 0 0 0 .83-4.098c-.684-4.05-5.092-5.523-7.735-6.047a3.926 3.926 0 0 0 .39-1.985c-.26-4.586-4.44-6.763-6.616-7.272a1.146 1.146 0 0 0-.687.052c-.218.087-.402.24-.526.435a1.076 1.076 0 0 0 .09 1.277c.311.36.48.816.476 1.287-.077.295-.485.505-.813.633a9.429 9.429 0 0 1-2.818.428c-2.149.118-4.823.266-5.773 3.465a3.486 3.486 0 0 0 .02 2.123c-.67.13-1.325.322-1.957.572a6.605 6.605 0 0 0-2.778 1.826 6.381 6.381 0 0 0-1.501 2.923 5.531 5.531 0 0 0 .65 4.203 7.393 7.393 0 0 0-3.606 2.47 7.114 7.114 0 0 0-1.527 4.034c-.09.962.034 1.932.362 2.844a6.721 6.721 0 0 0 1.54 2.44c2.988 3.172 9.4 4.931 18.052 4.958h.151c4.152 0 13.86-.51 17.988-5.037a7.03 7.03 0 0 0 1.564-2.688c.312-.997.393-2.05.239-3.082a6.41 6.41 0 0 0-1.424-3.169 6.652 6.652 0 0 0-2.891-2.002z"/><path fill="#fff" d="M32.168 21.295c-1.556 1.179-4.126 2.308-8.387 2.625a35.15 35.15 0 0 1-2.591.099 33.771 33.771 0 0 1-6.204-.55 1.124 1.124 0 0 1-.714-.465 1.074 1.074 0 0 1-.003-1.217 1.11 1.11 0 0 1 .713-.468c.144-.028.293-.028.437 0 2.7.485 5.454.626 8.191.42 4.97-.37 7.152-1.867 8.11-3.055a3.72 3.72 0 0 0 .733-1.412 3.664 3.664 0 0 0 .071-1.582c-.275-1.623-1.597-2.869-3.932-3.7a15.497 15.497 0 0 0-3.422-.768c-.246.15-.508.276-.78.376-.28.099-.588.085-.857-.039a1.106 1.106 0 0 1-.579-.618 1.069 1.069 0 0 1 .038-.838 1.096 1.096 0 0 1 .634-.564 2.29 2.29 0 0 0 1.106-.82c.273-.379.419-.83.418-1.293a5.315 5.315 0 0 0-.826-2.507 5.479 5.479 0 0 0-1.941-1.829c-.01.18-.038.36-.084.535a3.15 3.15 0 0 1-.806 1.328 3.256 3.256 0 0 1-1.355.798c-1.132.375-2.318.57-3.513.578-2.19.12-3.265.251-3.75 1.899l-.01.033c-.068.274-.064.559.012.83.076.271.222.519.424.72.503.558 2.173 1.768 6.737.91.291-.053.593.008.838.171s.414.415.47.7c.055.284-.008.578-.175.817-.166.24-.424.405-.715.46-1.1.215-2.217.328-3.339.338a7.574 7.574 0 0 1-4.997-1.473c-.655.049-4.754.486-5.415 3.733a3.477 3.477 0 0 0 .484 2.759c.267.404.616.75 1.024 1.02.409.269.87.454 1.353.545.29.066.54.243.697.49a1.074 1.074 0 0 1-.258 1.434 1.14 1.14 0 0 1-.952.208 6.779 6.779 0 0 1-2.044-.87 5.397 5.397 0 0 0-3.283 1.588A5.163 5.163 0 0 0 2.26 25.92c-.063.661.021 1.328.248 1.955a4.56 4.56 0 0 0 1.067 1.672c2.525 2.677 8.506 4.225 16.41 4.25h.143c6.018 0 13.418-1.128 16.313-4.303a4.872 4.872 0 0 0 1.097-1.888c.217-.702.27-1.442.154-2.166-.374-3.107-4.311-3.956-5.524-4.145z"/><path fill="#C29180" d="M35.608 20.02a12.347 12.347 0 0 0-1.7-.59 5.81 5.81 0 0 0 .831-4.098c-.685-4.05-5.092-5.523-7.735-6.047a3.927 3.927 0 0 0 .39-1.984c-.26-4.585-4.44-6.762-6.616-7.27a1.146 1.146 0 0 0-.687.051c-.218.087-.402.24-.526.435a1.075 1.075 0 0 0 .09 1.277c.311.36.48.817.476 1.288-.077.295-.485.505-.813.632-.91.284-1.862.43-2.818.428-2.149.118-4.823.267-5.773 3.465a3.485 3.485 0 0 0 .02 2.123c-.67.13-1.324.322-1.957.572a6.606 6.606 0 0 0-2.778 1.827 6.382 6.382 0 0 0-1.501 2.923 5.53 5.53 0 0 0 .65 4.202 7.393 7.393 0 0 0-3.606 2.47 7.113 7.113 0 0 0-1.527 4.034c-.09.962.034 1.932.362 2.844a6.72 6.72 0 0 0 1.54 2.44c2.988 3.172 9.4 4.931 18.052 4.958h.151c4.152 0 13.86-.51 17.988-5.037a7.026 7.026 0 0 0 1.564-2.687c.312-.998.393-2.05.24-3.082a6.41 6.41 0 0 0-1.425-3.171 6.642 6.642 0 0 0-2.892-2.004zm.84 9.49c-2.896 3.174-10.296 4.302-16.314 4.302h-.142c-7.903-.024-13.888-1.572-16.404-4.25a4.561 4.561 0 0 1-1.067-1.673 4.475 4.475 0 0 1-.247-1.954 5.163 5.163 0 0 1 1.465-3.278 5.398 5.398 0 0 1 3.283-1.588c.627.4 1.317.693 2.044.87a1.14 1.14 0 0 0 .953-.208c.197-.153.336-.367.394-.607.068-.283.019-.58-.138-.827a1.122 1.122 0 0 0-.696-.49 3.697 3.697 0 0 1-1.352-.545 3.603 3.603 0 0 1-1.024-1.02 3.479 3.479 0 0 1-.484-2.758c.661-3.252 4.76-3.69 5.415-3.734a7.574 7.574 0 0 0 4.997 1.474c1.122-.01 2.24-.124 3.34-.34.29-.055.548-.22.714-.459a1.073 1.073 0 0 0-.295-1.516 1.143 1.143 0 0 0-.838-.17c-4.563.853-6.232-.353-6.737-.911a1.644 1.644 0 0 1-.424-.72 1.615 1.615 0 0 1-.012-.83l.01-.034c.485-1.647 1.56-1.779 3.749-1.9a11.41 11.41 0 0 0 3.514-.577 3.258 3.258 0 0 0 1.355-.798c.377-.37.654-.827.806-1.328.046-.175.074-.355.084-.535a5.48 5.48 0 0 1 1.942 1.828c.482.757.766 1.618.825 2.508 0 .463-.146.914-.419 1.292a2.29 2.29 0 0 1-1.105.82 1.126 1.126 0 0 0-.634.565 1.074 1.074 0 0 0-.039.837c.102.273.31.495.58.619.269.123.577.136.857.038.271-.1.533-.227.78-.377 1.167.126 2.315.384 3.421.768 2.335.833 3.659 2.078 3.932 3.702a3.667 3.667 0 0 1-.071 1.582 3.72 3.72 0 0 1-.734 1.412c-.956 1.189-3.14 2.684-8.108 3.055a32.52 32.52 0 0 1-8.192-.42 1.147 1.147 0 0 0-.841.165 1.08 1.08 0 0 0-.306 1.52c.166.24.423.408.715.464 2.045.374 4.122.558 6.203.55.873 0 1.743-.03 2.59-.098 4.257-.317 6.831-1.441 8.388-2.625 1.208.187 5.149 1.036 5.535 4.156.11.723.054 1.46-.166 2.16a4.874 4.874 0 0 1-1.103 1.878v.004z"/><path fill="#fff" d="M168.168 21.295c-1.556 1.179-4.126 2.308-8.387 2.625-.862.065-1.727.098-2.591.099a33.781 33.781 0 0 1-6.204-.55 1.125 1.125 0 0 1-.714-.465 1.07 1.07 0 0 1-.003-1.217 1.128 1.128 0 0 1 1.15-.468c2.701.485 5.454.626 8.191.42 4.97-.37 7.152-1.867 8.109-3.055a3.673 3.673 0 0 0 .805-2.994c-.275-1.623-1.597-2.869-3.932-3.7a15.498 15.498 0 0 0-3.422-.768c-.246.15-.508.276-.78.376a1.146 1.146 0 0 1-.857-.039 1.11 1.11 0 0 1-.579-.618 1.067 1.067 0 0 1 .039-.838 1.125 1.125 0 0 1 .634-.565 2.291 2.291 0 0 0 1.105-.82c.273-.378.419-.83.418-1.292a5.312 5.312 0 0 0-.826-2.507 5.476 5.476 0 0 0-1.941-1.829c-.01.18-.038.36-.084.535a3.146 3.146 0 0 1-.806 1.328 3.258 3.258 0 0 1-1.355.798c-1.132.375-2.318.57-3.513.578-2.19.12-3.265.251-3.75 1.899l-.01.033a1.62 1.62 0 0 0 .436 1.55c.503.558 2.173 1.768 6.737.91.291-.053.593.008.838.171s.414.415.47.7c.055.284-.008.578-.175.817-.166.24-.424.405-.715.46a18.223 18.223 0 0 1-3.339.338 7.575 7.575 0 0 1-4.997-1.473c-.655.049-4.754.486-5.415 3.733a3.453 3.453 0 0 0-.047 1.428c.083.474.264.927.531 1.33.267.405.616.752 1.024 1.02a3.7 3.7 0 0 0 1.353.546c.29.066.54.243.697.49.156.247.206.545.137.827-.058.24-.197.454-.395.607a1.137 1.137 0 0 1-.952.208 6.763 6.763 0 0 1-2.044-.87 5.395 5.395 0 0 0-3.283 1.588 5.162 5.162 0 0 0-1.466 3.279 4.485 4.485 0 0 0 .248 1.955 4.557 4.557 0 0 0 1.067 1.672c2.525 2.677 8.506 4.225 16.409 4.25h.144c6.018 0 13.418-1.128 16.313-4.303a4.861 4.861 0 0 0 1.097-1.888 4.782 4.782 0 0 0 .154-2.166c-.374-3.107-4.311-3.956-5.524-4.145z"/><path fill="#C29180" d="M171.608 20.02a12.35 12.35 0 0 0-1.7-.59 5.806 5.806 0 0 0 .831-4.098c-.685-4.05-5.092-5.523-7.735-6.047a3.937 3.937 0 0 0 .39-1.984c-.26-4.585-4.441-6.762-6.616-7.27a1.146 1.146 0 0 0-.687.051c-.218.087-.402.24-.526.435a1.077 1.077 0 0 0 .089 1.277c.312.36.482.817.477 1.288-.077.295-.485.505-.813.632a9.422 9.422 0 0 1-2.818.428c-2.149.118-4.823.267-5.773 3.465a3.483 3.483 0 0 0 .02 2.123c-.669.13-1.324.322-1.957.572a6.599 6.599 0 0 0-2.778 1.827 6.376 6.376 0 0 0-1.501 2.923 5.532 5.532 0 0 0 .65 4.202 7.394 7.394 0 0 0-3.606 2.47 7.113 7.113 0 0 0-1.527 4.034 6.603 6.603 0 0 0 .362 2.844 6.723 6.723 0 0 0 1.539 2.44c2.989 3.172 9.401 4.931 18.053 4.958h.151c4.152 0 13.86-.51 17.988-5.037a7.03 7.03 0 0 0 1.564-2.687c.312-.998.393-2.05.239-3.082a6.407 6.407 0 0 0-1.424-3.171 6.641 6.641 0 0 0-2.892-2.004zm.839 9.49c-2.895 3.174-10.295 4.302-16.313 4.302h-.142c-7.903-.024-13.888-1.572-16.404-4.25a4.557 4.557 0 0 1-1.067-1.673 4.47 4.47 0 0 1-.247-1.954 5.165 5.165 0 0 1 1.465-3.278 5.4 5.4 0 0 1 3.283-1.588c.627.4 1.317.693 2.044.87a1.142 1.142 0 0 0 .953-.208c.197-.153.336-.367.394-.607a1.07 1.07 0 0 0-.138-.827 1.121 1.121 0 0 0-.696-.49 3.691 3.691 0 0 1-1.352-.545 3.592 3.592 0 0 1-1.024-1.02 3.513 3.513 0 0 1-.531-1.33 3.47 3.47 0 0 1 .047-1.428c.661-3.252 4.759-3.69 5.415-3.734a7.575 7.575 0 0 0 4.997 1.474c1.122-.01 2.24-.124 3.339-.34a1.12 1.12 0 0 0 .715-.459 1.072 1.072 0 0 0-.295-1.516 1.144 1.144 0 0 0-.838-.17c-4.563.853-6.232-.353-6.737-.911a1.622 1.622 0 0 1-.436-1.55l.01-.034c.485-1.647 1.56-1.779 3.749-1.9a11.405 11.405 0 0 0 3.514-.577 3.26 3.26 0 0 0 1.355-.798c.377-.37.654-.827.806-1.328.046-.175.074-.355.084-.535a5.479 5.479 0 0 1 1.942 1.828c.482.757.766 1.618.825 2.508a2.2 2.2 0 0 1-.419 1.292 2.29 2.29 0 0 1-1.105.82 1.125 1.125 0 0 0-.634.565 1.07 1.07 0 0 0-.039.837c.102.273.31.495.579.619.27.123.578.136.857.038.272-.1.534-.227.78-.377a15.49 15.49 0 0 1 3.422.768c2.335.833 3.659 2.078 3.932 3.702a3.658 3.658 0 0 1-.071 1.582 3.718 3.718 0 0 1-.734 1.412c-.956 1.189-3.14 2.684-8.108 3.055a32.528 32.528 0 0 1-8.192-.42 1.143 1.143 0 0 0-.841.165 1.093 1.093 0 0 0-.475.698c-.057.285.003.58.169.822.166.24.423.408.715.464 2.045.374 4.122.558 6.203.55.873 0 1.743-.03 2.591-.098 4.256-.317 6.83-1.441 8.387-2.625 1.208.187 5.149 1.036 5.535 4.156.111.723.054 1.46-.166 2.16a4.861 4.861 0 0 1-1.103 1.878v.004z"/><path fill="#fff" d="M236.168 85.295c-1.556 1.179-4.126 2.308-8.388 2.626-.861.064-1.726.097-2.59.098a33.781 33.781 0 0 1-6.204-.55 1.125 1.125 0 0 1-.714-.465 1.07 1.07 0 0 1-.003-1.217 1.128 1.128 0 0 1 1.15-.468c2.701.485 5.454.626 8.191.42 4.97-.37 7.152-1.867 8.109-3.055a3.673 3.673 0 0 0 .805-2.994c-.275-1.623-1.597-2.869-3.932-3.7a15.498 15.498 0 0 0-3.422-.768c-.246.15-.508.276-.78.376a1.146 1.146 0 0 1-.857-.038 1.11 1.11 0 0 1-.579-.62 1.067 1.067 0 0 1 .039-.837c.062-.13.15-.247.259-.344.109-.097.236-.172.375-.22a2.291 2.291 0 0 0 1.105-.82c.273-.379.419-.83.418-1.293a5.312 5.312 0 0 0-.826-2.507 5.476 5.476 0 0 0-1.941-1.829c-.01.18-.038.36-.084.535a3.146 3.146 0 0 1-.806 1.328 3.258 3.258 0 0 1-1.355.798c-1.132.375-2.318.57-3.513.578-2.19.12-3.265.251-3.75 1.899l-.01.033a1.62 1.62 0 0 0 .436 1.55c.503.558 2.173 1.768 6.737.91.291-.053.593.008.838.171s.414.415.47.7c.055.284-.008.578-.175.817-.166.24-.424.405-.715.46a18.223 18.223 0 0 1-3.339.338 7.575 7.575 0 0 1-4.997-1.473c-.655.049-4.754.486-5.415 3.734a3.453 3.453 0 0 0-.047 1.427c.083.474.264.927.531 1.33.267.405.616.752 1.024 1.02a3.7 3.7 0 0 0 1.353.546c.29.066.54.243.697.49.156.247.206.545.137.827-.058.24-.197.454-.395.607a1.137 1.137 0 0 1-.952.208 6.763 6.763 0 0 1-2.044-.87 5.395 5.395 0 0 0-3.283 1.588 5.163 5.163 0 0 0-1.466 3.279 4.485 4.485 0 0 0 .248 1.955 4.557 4.557 0 0 0 1.067 1.671c2.525 2.678 8.506 4.226 16.409 4.251h.144c6.018 0 13.418-1.128 16.313-4.303a4.861 4.861 0 0 0 1.097-1.888 4.782 4.782 0 0 0 .154-2.166c-.374-3.106-4.311-3.956-5.524-4.145z"/><path fill="#C29180" d="M239.608 84.02a12.35 12.35 0 0 0-1.7-.59 5.806 5.806 0 0 0 .831-4.098c-.685-4.05-5.092-5.523-7.735-6.047.301-.618.435-1.3.39-1.984-.26-4.585-4.441-6.762-6.616-7.27a1.145 1.145 0 0 0-.687.051c-.218.087-.402.24-.526.435a1.077 1.077 0 0 0 .089 1.277c.312.36.482.817.477 1.288-.077.295-.485.505-.813.632a9.423 9.423 0 0 1-2.818.428c-2.149.118-4.823.267-5.773 3.465a3.483 3.483 0 0 0 .02 2.123c-.669.13-1.324.322-1.957.572a6.599 6.599 0 0 0-2.778 1.826 6.376 6.376 0 0 0-1.501 2.924 5.532 5.532 0 0 0 .65 4.202 7.394 7.394 0 0 0-3.606 2.47 7.113 7.113 0 0 0-1.527 4.034 6.603 6.603 0 0 0 .362 2.844 6.723 6.723 0 0 0 1.539 2.44c2.989 3.171 9.401 4.931 18.053 4.958h.151c4.152 0 13.86-.51 17.988-5.037a7.03 7.03 0 0 0 1.564-2.687c.312-.998.393-2.05.239-3.082a6.407 6.407 0 0 0-1.424-3.171 6.641 6.641 0 0 0-2.892-2.004zm.839 9.49c-2.895 3.174-10.295 4.302-16.313 4.302h-.142c-7.903-.024-13.888-1.572-16.404-4.25a4.557 4.557 0 0 1-1.067-1.673 4.47 4.47 0 0 1-.247-1.954 5.165 5.165 0 0 1 1.465-3.278 5.4 5.4 0 0 1 3.283-1.588c.627.4 1.317.693 2.044.87a1.142 1.142 0 0 0 .953-.208c.197-.153.336-.367.394-.607a1.07 1.07 0 0 0-.138-.827 1.121 1.121 0 0 0-.696-.49 3.691 3.691 0 0 1-1.352-.545 3.592 3.592 0 0 1-1.024-1.02 3.513 3.513 0 0 1-.531-1.33 3.47 3.47 0 0 1 .047-1.428c.661-3.252 4.759-3.69 5.415-3.734a7.575 7.575 0 0 0 4.997 1.474c1.122-.01 2.24-.124 3.339-.34a1.12 1.12 0 0 0 .715-.459 1.072 1.072 0 0 0-.295-1.516 1.144 1.144 0 0 0-.838-.17c-4.563.853-6.232-.353-6.737-.912a1.622 1.622 0 0 1-.436-1.55l.01-.033c.485-1.647 1.56-1.779 3.749-1.9a11.406 11.406 0 0 0 3.514-.578 3.259 3.259 0 0 0 1.355-.797c.377-.37.654-.827.806-1.328.046-.175.074-.355.084-.535a5.48 5.48 0 0 1 1.942 1.828c.482.757.766 1.618.825 2.508a2.2 2.2 0 0 1-.419 1.292 2.29 2.29 0 0 1-1.105.82 1.125 1.125 0 0 0-.634.565 1.07 1.07 0 0 0-.039.837c.102.273.31.495.579.619.27.123.578.136.857.038.272-.1.534-.227.78-.377a15.49 15.49 0 0 1 3.422.768c2.335.833 3.659 2.078 3.932 3.702a3.658 3.658 0 0 1-.071 1.582 3.718 3.718 0 0 1-.734 1.412c-.956 1.189-3.14 2.684-8.108 3.055a32.528 32.528 0 0 1-8.192-.42 1.143 1.143 0 0 0-.841.165 1.093 1.093 0 0 0-.475.698c-.057.285.003.58.169.822.166.24.423.408.715.464 2.045.374 4.122.558 6.203.55.873 0 1.743-.03 2.591-.098 4.256-.317 6.83-1.441 8.387-2.625 1.208.187 5.149 1.036 5.535 4.156.111.723.054 1.46-.166 2.16a4.861 4.861 0 0 1-1.103 1.878v.004z"/><path fill="#fff" d="M32.168 149.295c-1.556 1.179-4.126 2.308-8.387 2.625-.862.065-1.726.098-2.591.099a33.772 33.772 0 0 1-6.204-.551 1.123 1.123 0 0 1-.714-.464 1.075 1.075 0 0 1-.003-1.217c.081-.12.186-.223.309-.303a1.153 1.153 0 0 1 .841-.166c2.7.486 5.454.627 8.191.421 4.97-.369 7.152-1.867 8.11-3.055.344-.414.594-.896.733-1.412a3.664 3.664 0 0 0 .071-1.582c-.275-1.623-1.597-2.869-3.932-3.701a15.513 15.513 0 0 0-3.422-.767 4.47 4.47 0 0 1-.78.376c-.28.099-.588.085-.857-.038a1.108 1.108 0 0 1-.579-.619 1.074 1.074 0 0 1 .298-1.182c.109-.096.236-.172.375-.22a2.29 2.29 0 0 0 1.105-.821c.273-.378.419-.829.418-1.292a5.313 5.313 0 0 0-.826-2.507 5.478 5.478 0 0 0-1.941-1.829c-.01.18-.038.36-.084.535-.152.501-.43.957-.806 1.328a3.261 3.261 0 0 1-1.355.798c-1.132.375-2.318.57-3.513.578-2.19.12-3.265.251-3.75 1.899l-.01.033c-.068.274-.064.559.012.83.076.271.222.519.424.72.503.558 2.173 1.768 6.737.911a1.14 1.14 0 0 1 .838.17 1.073 1.073 0 0 1 .295 1.517c-.166.24-.424.405-.715.46-1.1.215-2.217.328-3.339.339a7.58 7.58 0 0 1-4.997-1.474c-.655.049-4.754.486-5.415 3.733a3.48 3.48 0 0 0 .484 2.759c.267.404.616.751 1.024 1.02.409.269.87.454 1.353.545.29.066.54.243.697.49.156.247.206.545.137.827-.058.24-.197.454-.395.607a1.137 1.137 0 0 1-.952.208 6.782 6.782 0 0 1-2.044-.87 5.4 5.4 0 0 0-3.283 1.588 5.167 5.167 0 0 0-1.466 3.279c-.063.661.021 1.328.248 1.955.227.626.591 1.196 1.067 1.671 2.525 2.678 8.506 4.226 16.41 4.251h.143c6.018 0 13.418-1.128 16.313-4.304a4.869 4.869 0 0 0 1.097-1.887c.217-.702.27-1.442.154-2.166-.374-3.106-4.311-3.956-5.524-4.145z"/><path fill="#C29180" d="M35.608 148.019a12.373 12.373 0 0 0-1.7-.589 5.81 5.81 0 0 0 .831-4.098c-.685-4.049-5.092-5.523-7.735-6.047a3.927 3.927 0 0 0 .39-1.984c-.26-4.585-4.44-6.762-6.616-7.271a1.154 1.154 0 0 0-.687.052 1.109 1.109 0 0 0-.526.435 1.073 1.073 0 0 0 .09 1.277c.311.36.48.817.476 1.288-.077.295-.485.505-.813.632a9.438 9.438 0 0 1-2.818.428c-2.149.118-4.823.267-5.773 3.465a3.484 3.484 0 0 0 .02 2.123c-.67.131-1.324.322-1.957.572a6.603 6.603 0 0 0-2.778 1.826 6.386 6.386 0 0 0-1.501 2.924 5.53 5.53 0 0 0 .65 4.202 7.391 7.391 0 0 0-3.606 2.47 7.113 7.113 0 0 0-1.527 4.034c-.09.962.034 1.932.362 2.844a6.724 6.724 0 0 0 1.54 2.441c2.988 3.171 9.4 4.93 18.052 4.957h.151c4.152 0 13.86-.511 17.988-5.037a7.026 7.026 0 0 0 1.564-2.687c.312-.998.393-2.05.24-3.082a6.407 6.407 0 0 0-1.425-3.171 6.65 6.65 0 0 0-2.892-2.004zm.84 9.49c-2.896 3.175-10.296 4.303-16.314 4.303h-.142c-7.903-.024-13.888-1.572-16.404-4.251a4.554 4.554 0 0 1-1.067-1.672 4.474 4.474 0 0 1-.247-1.955 5.163 5.163 0 0 1 1.465-3.277 5.395 5.395 0 0 1 3.283-1.588 6.808 6.808 0 0 0 2.044.87 1.137 1.137 0 0 0 .953-.208 1.074 1.074 0 0 0 .257-1.434 1.122 1.122 0 0 0-.697-.49 3.684 3.684 0 0 1-1.352-.545 3.603 3.603 0 0 1-1.024-1.02 3.48 3.48 0 0 1-.484-2.758c.661-3.252 4.76-3.689 5.415-3.734a7.569 7.569 0 0 0 4.997 1.474c1.122-.01 2.24-.124 3.34-.34.29-.055.548-.22.714-.459a1.073 1.073 0 0 0-.295-1.516 1.145 1.145 0 0 0-.838-.171c-4.563.854-6.232-.352-6.737-.91a1.647 1.647 0 0 1-.424-.72 1.615 1.615 0 0 1-.012-.83l.01-.034c.485-1.647 1.56-1.779 3.749-1.9a11.393 11.393 0 0 0 3.514-.577 3.262 3.262 0 0 0 1.355-.798c.377-.371.654-.827.806-1.328.046-.175.074-.355.084-.535a5.484 5.484 0 0 1 1.942 1.828c.482.757.766 1.618.825 2.508a2.2 2.2 0 0 1-.419 1.292c-.273.379-.659.665-1.105.82a1.128 1.128 0 0 0-.634.565 1.072 1.072 0 0 0-.039.837c.102.273.31.496.58.619.269.123.577.136.857.038.271-.1.533-.227.78-.377 1.167.126 2.315.384 3.421.768 2.335.833 3.659 2.078 3.932 3.702a3.668 3.668 0 0 1-.071 1.582 3.72 3.72 0 0 1-.734 1.412c-.956 1.189-3.14 2.684-8.108 3.055-2.738.206-5.491.064-8.192-.421a1.151 1.151 0 0 0-.841.166 1.103 1.103 0 0 0-.475.698c-.057.285.003.58.17.822.165.241.422.408.714.464a33.77 33.77 0 0 0 6.203.55c.873 0 1.743-.03 2.59-.098 4.257-.317 6.831-1.441 8.388-2.625 1.208.187 5.149 1.036 5.535 4.156.11.723.054 1.461-.166 2.159a4.872 4.872 0 0 1-1.103 1.879v.004z"/><path fill="#fff" d="M168.168 149.296c-1.556 1.179-4.126 2.308-8.387 2.626-.862.064-1.727.097-2.591.098a33.78 33.78 0 0 1-6.204-.55 1.13 1.13 0 0 1-.714-.465 1.071 1.071 0 0 1-.003-1.217 1.128 1.128 0 0 1 1.15-.467c2.701.485 5.454.626 8.191.42 4.97-.37 7.152-1.867 8.109-3.055.345-.414.595-.896.734-1.412a3.659 3.659 0 0 0 .071-1.582c-.275-1.623-1.597-2.869-3.932-3.702a15.447 15.447 0 0 0-3.422-.768c-.246.15-.508.276-.78.377a1.151 1.151 0 0 1-.857-.039 1.094 1.094 0 0 1-.645-1.041 1.088 1.088 0 0 1 .364-.759c.109-.097.236-.172.375-.221a2.29 2.29 0 0 0 1.105-.82c.272-.378.419-.829.418-1.292a5.31 5.31 0 0 0-.826-2.507 5.474 5.474 0 0 0-1.941-1.829c-.01.18-.038.359-.084.535-.152.5-.429.957-.806 1.328a3.268 3.268 0 0 1-1.355.797c-1.132.375-2.318.57-3.513.578-2.19.121-3.265.252-3.75 1.899l-.01.034a1.618 1.618 0 0 0 .436 1.549c.503.559 2.173 1.769 6.737.912.291-.054.592.008.838.17a1.073 1.073 0 0 1 .295 1.517 1.124 1.124 0 0 1-.715.459c-1.099.216-2.217.33-3.339.34a7.575 7.575 0 0 1-4.997-1.474c-.655.049-4.754.486-5.415 3.734a3.455 3.455 0 0 0-.047 1.428c.083.474.264.927.531 1.331.267.404.616.751 1.024 1.02a3.69 3.69 0 0 0 1.353.544c.289.067.54.243.696.49.157.247.206.545.138.827-.058.24-.197.454-.395.607a1.134 1.134 0 0 1-.952.208 6.742 6.742 0 0 1-2.044-.87 5.402 5.402 0 0 0-3.283 1.588 5.171 5.171 0 0 0-1.466 3.278 4.491 4.491 0 0 0 .248 1.956 4.559 4.559 0 0 0 1.067 1.672c2.525 2.678 8.506 4.225 16.409 4.251h.144c6.018 0 13.418-1.128 16.313-4.304a4.862 4.862 0 0 0 1.097-1.888 4.782 4.782 0 0 0 .154-2.165c-.374-3.108-4.311-3.958-5.524-4.146z"/><path fill="#C29180" d="M171.608 148.019a12.375 12.375 0 00-1.7-.589 5.808 5.808 0 00.831-4.097c-.685-4.05-5.092-5.524-7.735-6.047a3.94 3.94 0 00.39-1.984c-.26-4.586-4.441-6.763-6.616-7.272a1.153 1.153 0 00-.687.052 1.106 1.106 0 00-.526.435 1.068 1.068 0 00.089 1.277c.312.359.481.816.477 1.287-.077.295-.485.505-.813.633a9.44 9.44 0 01-2.818.427c-2.149.118-4.823.267-5.773 3.465a3.493 3.493 0 00.019 2.124 11.13 11.13 0 00-1.956.571 6.607 6.607 0 00-2.778 1.827 6.376 6.376 0 00-1.501 2.923 5.533 5.533 0 00.65 4.203 7.392 7.392 0 00-3.606 2.47 7.113 7.113 0 00-1.527 4.034 6.602 6.602 0 00.362 2.844 6.727 6.727 0 001.539 2.441c2.989 3.17 9.401 4.931 18.053 4.957h.151c4.152 0 13.86-.511 17.988-5.037a7.026 7.026 0 001.564-2.688c.312-.997.393-2.05.239-3.082a6.405 6.405 0 00-1.424-3.17 6.64 6.64 0 00-2.892-2.004zm.839 9.491c-2.895 3.175-10.295 4.304-16.313 4.304h-.142c-7.903-.024-13.888-1.573-16.404-4.251a4.559 4.559 0 01-1.067-1.672 4.488 4.488 0 01-.248-1.955 5.171 5.171 0 011.466-3.278 5.402 5.402 0 013.283-1.588 6.792 6.792 0 002.044.87 1.134 1.134 0 00.952-.208c.198-.153.337-.367.395-.607.068-.283.019-.58-.138-.827a1.121 1.121 0 00-.696-.49 3.68 3.68 0 01-1.352-.545 3.592 3.592 0 01-1.024-1.02 3.498 3.498 0 01-.484-2.758c.661-3.253 4.759-3.69 5.415-3.734a7.575 7.575 0 004.997 1.474 18.24 18.24 0 003.339-.339c.292-.055.549-.22.715-.46a1.071 1.071 0 00-.295-1.516 1.146 1.146 0 00-.838-.17c-4.563.854-6.232-.353-6.737-.911a1.622 1.622 0 01-.436-1.55l.01-.034c.485-1.647 1.56-1.779 3.749-1.899a11.418 11.418 0 003.514-.578 3.27 3.27 0 001.355-.798c.377-.371.654-.827.806-1.328.046-.175.074-.354.084-.534a5.48 5.48 0 011.941 1.828 5.31 5.31 0 01.826 2.507c.001.463-.146.914-.419 1.293a2.296 2.296 0 01-1.105.82 1.11 1.11 0 00-.634.565 1.069 1.069 0 00-.039.837c.102.273.31.495.579.618.27.123.578.137.857.038.272-.1.534-.226.78-.376 1.168.126 2.316.383 3.422.767 2.335.833 3.659 2.079 3.932 3.703a3.675 3.675 0 01-.805 2.994c-.956 1.189-3.14 2.684-8.109 3.055a32.49 32.49 0 01-8.191-.421 1.147 1.147 0 00-.841.166 1.088 1.088 0 00-.475.698c-.057.285.003.581.169.822s.423.408.715.464c2.045.374 4.122.559 6.203.551.873 0 1.743-.031 2.591-.099 4.256-.317 6.83-1.441 8.387-2.625 1.208.187 5.149 1.036 5.535 4.156a4.8 4.8 0 01-.166 2.159 4.875 4.875 0 01-1.103 1.878v.004zM231 201.286a3.937 3.937 0 00.39-1.984c-.26-4.587-4.442-6.764-6.616-7.273a1.137 1.137 0 00-1.213.492 1.076 1.076 0 00.089 1.277c.138.175.253.366.343.567.12.222.167.474.133.722a.526.526 0 01-.133.226c-.194.181-.426.32-.68.407a9.44 9.44 0 01-2.818.427c-2.149.119-4.823.266-5.774 3.465a3.493 3.493 0 00.019 2.124c-.669.131-1.324.323-1.956.573a6.596 6.596 0 00-2.778 1.826 6.375 6.375 0 00-1.501 2.924 5.983 5.983 0 00.079 2.948h29.975a5.764 5.764 0 00.173-2.667c-.681-4.056-5.088-5.53-7.732-6.054z"/><path fill="#C29180" d="M239.604 212.019a12.248 12.248 0 0 0-1.7-.59c.282-.447.503-.928.658-1.431H208.59c.132.441.324.863.571 1.254a7.392 7.392 0 0 0-3.606 2.47 7.116 7.116 0 0 0-1.527 4.035 6.602 6.602 0 0 0 .362 2.844 6.718 6.718 0 0 0 1.539 2.441c2.989 3.172 9.401 4.932 18.053 4.958h.151c4.152 0 13.86-.511 17.988-5.038a7.03 7.03 0 0 0 1.564-2.687 6.91 6.91 0 0 0 .239-3.083 6.407 6.407 0 0 0-1.426-3.171 6.634 6.634 0 0 0-2.894-2.002z"/><path fill="#fff" d="M96.583 203.99a15.518 15.518 0 0 0-3.422-.768c-.246.15-.508.276-.78.376a1.154 1.154 0 0 1-1.21-.291 1.091 1.091 0 0 1-.292-.788 1.07 1.07 0 0 1 .364-.759c.109-.097.236-.172.375-.221a2.295 2.295 0 0 0 1.105-.82c.272-.378.419-.829.418-1.292a5.318 5.318 0 0 0-.826-2.508 5.485 5.485 0 0 0-1.941-1.829c-.01.181-.038.36-.084.535a3.15 3.15 0 0 1-.806 1.328 3.262 3.262 0 0 1-1.355.798c-1.132.374-2.318.57-3.513.578-2.19.12-3.265.252-3.75 1.899l-.01.033c-.068.273-.064.559.012.83.076.271.222.519.424.72.503.558 2.172 1.769 6.737.912.291-.054.592.008.838.17a1.075 1.075 0 0 1 .296 1.517 1.126 1.126 0 0 1-.716.459c-1.1.216-2.217.33-3.339.34a7.574 7.574 0 0 1-4.997-1.474c-.655.049-4.754.487-5.415 3.734a3.566 3.566 0 0 0 .302 2.522h25.16a3.626 3.626 0 0 0 .359-2.311c-.276-1.612-1.599-2.858-3.934-3.69z"/><path fill="#C29180" d="M94.994 201.287a3.928 3.928 0 0 0 .39-1.985c-.26-4.586-4.442-6.762-6.616-7.271a1.14 1.14 0 0 0-1.214.485 1.076 1.076 0 0 0 .09 1.278c.311.359.48.816.476 1.287-.077.295-.484.505-.813.633a9.437 9.437 0 0 1-2.818.428c-2.149.118-4.823.266-5.774 3.464a3.488 3.488 0 0 0 .02 2.124c-.67.13-1.325.322-1.957.572A6.603 6.603 0 0 0 74 204.128a6.38 6.38 0 0 0-1.501 2.924 5.989 5.989 0 0 0 .08 2.948h2.415a3.565 3.565 0 0 1-.302-2.522c.66-3.253 4.759-3.69 5.415-3.734a7.575 7.575 0 0 0 4.997 1.474c1.121-.01 2.24-.124 3.34-.339.29-.055.547-.22.714-.459a1.074 1.074 0 0 0-.295-1.517 1.141 1.141 0 0 0-.838-.171c-4.565.854-6.232-.353-6.737-.911a1.648 1.648 0 0 1-.424-.72 1.616 1.616 0 0 1-.012-.83l.01-.034c.485-1.647 1.56-1.779 3.75-1.9a11.446 11.446 0 0 0 3.513-.577 3.262 3.262 0 0 0 1.355-.798 3.15 3.15 0 0 0 .806-1.328c.046-.175.074-.354.084-.535a5.478 5.478 0 0 1 1.941 1.829c.483.756.767 1.618.826 2.507 0 .463-.145.914-.418 1.293a2.294 2.294 0 0 1-1.106.82 1.128 1.128 0 0 0-.634.565 1.072 1.072 0 0 0 .188 1.203 1.122 1.122 0 0 0 .778.356c.147.006.294-.016.432-.065.272-.1.534-.226.78-.376 1.167.126 2.316.384 3.422.768 2.335.833 3.658 2.078 3.932 3.702a3.622 3.622 0 0 1-.359 2.31h2.4a5.763 5.763 0 0 0 .173-2.667c-.68-4.059-5.087-5.533-7.731-6.057z"/><path fill="#fff" d="M100.158 213.299c-1.556 1.18-4.126 2.309-8.388 2.626-.861.065-1.726.097-2.59.098a33.772 33.772 0 0 1-6.204-.55 1.12 1.12 0 0 1-.714-.465 1.073 1.073 0 0 1-.003-1.216 1.131 1.131 0 0 1 1.15-.468c2.7.485 5.454.627 8.191.421 4.97-.37 7.152-1.868 8.109-3.056.172-.214.323-.444.449-.687h-25.16a4.139 4.139 0 0 0 2.563 1.804c.29.066.54.243.696.49A1.074 1.074 0 0 1 78 213.73a1.138 1.138 0 0 1-.952.208 6.78 6.78 0 0 1-2.044-.869 5.39 5.39 0 0 0-3.283 1.588 5.164 5.164 0 0 0-1.466 3.278c-.063.661.021 1.328.248 1.955.227.626.591 1.196 1.067 1.672 2.525 2.677 8.506 4.225 16.41 4.251h.143c6.017 0 13.418-1.129 16.313-4.304a4.866 4.866 0 0 0 1.097-1.889 4.781 4.781 0 0 0 .154-2.165c-.38-3.12-4.316-3.968-5.529-4.156z"/><path fill="#C29180" d="M103.598 212.02a12.375 12.375 0 0 0-1.7-.589c.282-.448.503-.928.658-1.431h-2.396a4.177 4.177 0 0 1-.449.688c-.956 1.189-3.14 2.685-8.109 3.055-2.737.206-5.49.064-8.19-.421a1.15 1.15 0 0 0-.842.165 1.102 1.102 0 0 0-.475.698c-.058.285.003.581.169.822s.423.408.714.464c2.046.374 4.123.559 6.204.551.873 0 1.743-.031 2.59-.099 4.257-.317 6.831-1.442 8.388-2.625 1.208.187 5.149 1.035 5.535 4.156a4.786 4.786 0 0 1-.154 2.166 4.862 4.862 0 0 1-1.097 1.888c-2.895 3.175-10.295 4.304-16.312 4.304h-.15c-7.903-.024-13.888-1.572-16.404-4.251a4.563 4.563 0 0 1-1.067-1.672 4.474 4.474 0 0 1-.248-1.955 5.164 5.164 0 0 1 1.466-3.278 5.395 5.395 0 0 1 3.283-1.588 6.78 6.78 0 0 0 2.044.869 1.144 1.144 0 0 0 .953-.207c.197-.154.336-.367.394-.607a1.075 1.075 0 0 0-.137-.828 1.122 1.122 0 0 0-.697-.49 4.135 4.135 0 0 1-2.563-1.804H72.59c.132.441.324.863.57 1.254a7.391 7.391 0 0 0-3.605 2.47 7.113 7.113 0 0 0-1.527 4.034c-.09.963.034 1.932.362 2.844a6.725 6.725 0 0 0 1.54 2.441c2.988 3.172 9.4 4.932 18.052 4.957h.151c4.152 0 13.86-.511 17.988-5.037a7.026 7.026 0 0 0 1.564-2.688c.312-.997.393-2.05.239-3.082a6.405 6.405 0 0 0-1.428-3.172 6.644 6.644 0 0 0-2.898-2.002z"/></svg>