<svg xmlns="http://www.w3.org/2000/svg" width="32.324" height="30" viewBox="0 0 32.324 30">
  <path id="logo" d="M7.66,23.04V17.025c0-.3,0-.6.016-.9.008-.23.024-.453.04-.675.008-.135.024-.262.032-.4.016-.191.048-.389.072-.58s.056-.366.087-.548c.048-.286.111-.572.175-.85.119-.493.254-.985.413-1.462A16.856,16.856,0,0,1,9.337,9.58a16.263,16.263,0,0,1,5.745-6.42,15.968,15.968,0,0,1,2.241-1.2A16.663,16.663,0,0,1,19.46,1.2c.524-.143,1.057-.262,1.589-.358.278-.048.556-.087.834-.127.23-.032.469-.048.707-.064.2-.016.4-.024.6-.032.429-.016.858-.016,1.3,0l.135.008c.238.008.469.032.707.048q.405.036.81.1c.27.04.54.087.8.135a15.4,15.4,0,0,1,1.78.461,16.232,16.232,0,0,1,5.157,2.749A16.051,16.051,0,0,1,38.1,9.207a15.93,15.93,0,0,1,1.089,2.574c.135.421.254.842.358,1.271.079.35.151.707.215,1.065.04.246.072.493.1.739.016.135.024.262.04.389.016.167.032.326.04.485l.008.056c.008.326.032.652.032.977V30.541l-.056.056H30.775l-.04-.032V16.676a6.733,6.733,0,0,0-1.1-3.663,6.869,6.869,0,0,0-3.25-2.694,6.587,6.587,0,0,0-1.454-.405,6.688,6.688,0,0,0-1.192-.087,6.935,6.935,0,0,0-6.563,4.958,6.581,6.581,0,0,0-.207.954,8.12,8.12,0,0,0-.079,1.073V30.565l-.048.04H7.692l-.032-.048V23.04Z" transform="translate(-7.66 -0.605)" fill="#ff5100"/>
</svg>
