<svg xmlns="http://www.w3.org/2000/svg" width="250" height="78.192" viewBox="0 0 250 78.192">
  <g id="marketing-logo" transform="translate(0 -2)">
    <path id="Path_6846" data-name="Path 6846" d="M201.26,80.18V2h18.25V8.238h-9.975V73.943h9.975v6.25Z" transform="translate(-54.58 0)" fill="red"/>
    <path id="Path_6847" data-name="Path 6847" d="M239.19,17.447V7.259h-6.622V17.447Zm2.122,49.25V65.169H239.19V22.542h-8.75v1.53h2.122v41.1H230.44v1.528Zm24.792,0V65.169h-2.122V29.929c0-5.1-2.462-7.813-7.217-7.813a7.322,7.322,0,0,0-4.925,1.613v-1.19h-8.75v1.53h2.122v41.1H243.09v1.528h10.867V65.167H251.84V25.259a4.168,4.168,0,0,1,3.057-1.445c1.867,0,2.463,1.357,2.463,3.228V66.694Zm23.52-42.623v-1.53h-8.75v1.19a7.325,7.325,0,0,0-4.925-1.613c-4.75,0-7.217,2.718-7.217,7.813V58.459c0,5.1,2.462,7.813,7.217,7.813a7.33,7.33,0,0,0,4.925-1.612v9.425c0,1.868-.765,3.4-2.632,3.4a3.11,3.11,0,0,1-2.888-3.4V68.817h-6.622v1.527a9.235,9.235,0,0,0,9.5,8.66,8.692,8.692,0,0,0,9.25-8.66V24.072Zm-8.75,39.058a4.17,4.17,0,0,1-3.057,1.442c-1.867,0-2.463-1.357-2.463-3.228V27.042c0-1.868.6-3.228,2.463-3.228a4.167,4.167,0,0,1,3.057,1.445Z" transform="translate(-62.497 -1.427)" fill="#fff"/>
    <path id="Path_6848" data-name="Path 6848" d="M35.153,66.694V65.167H33.03V29.929c0-5.1-2.462-7.813-7.218-7.813a8.3,8.3,0,0,0-6.282,2.548,6.645,6.645,0,0,0-5.86-2.553,7.323,7.323,0,0,0-4.925,1.612v-1.19H0v1.53H2.123v41.1H0v1.528H10.868V65.167H8.75V25.259a4.168,4.168,0,0,1,3.057-1.445c1.868,0,2.463,1.357,2.463,3.228V66.694H23V65.167H20.888V29.929a9.7,9.7,0,0,0-.765-4.075,5.363,5.363,0,0,1,3.82-2.037c1.867,0,2.462,1.357,2.462,3.227v39.65Zm22.84,0V65.167H55.87V30.779a8.32,8.32,0,0,0-9.085-8.667,8.32,8.32,0,0,0-9.085,8.66v5.265h6.623v-9c0-1.868.6-3.4,2.463-3.4s2.463,1.528,2.463,3.4V41.3H47.21c-5.518,0-9.765,2.207-9.765,8.235V59.3c0,5.1,2.292,7.813,7.048,7.813a6.875,6.875,0,0,0,4.75-1.612v1.187Zm-8.75-2.718a3.83,3.83,0,0,1-2.888,1.443c-1.868,0-2.292-1.358-2.292-3.228V46.232a2.963,2.963,0,0,1,3.228-3.395h1.96ZM79.3,36.042V29.929c0-5.1-1.867-7.813-6.622-7.813a6.655,6.655,0,0,0-4.67,1.612v-1.19H59.26v1.53h2.123v41.1H59.26v1.528H70.128V65.167H68V25.259a3.628,3.628,0,0,1,2.632-1.445c1.868,0,2.037,1.358,2.037,3.228v9ZM104.1,66.694V65.167H101.8l-7.472-27.5,6.283-13.585h2.137v-1.53H96.285v1.53H98.5L90,42.157V7.259H81.25V8.787h2.122v56.38H81.25v1.528H92.125V65.167H90V45.044L95.52,66.7Zm19.783-8.235V53.194H117.25v9a3,3,0,1,1-5.942,0V45.3h12.565V30.779a9,9,0,0,0-9.588-8.668,9,9,0,0,0-9.6,8.66V58.459a9,9,0,0,0,9.6,8.653,9,9,0,0,0,9.595-8.653Zm-6.628-14.69h-5.935V27.042a3,3,0,1,1,5.942,0Zm23.265,22.925V65.167H138.4a3.067,3.067,0,0,1-2.972-3.4v-37.7h4.75v-1.53h-4.75V7.259l-6.623,2.973v12.31h-2.122v1.53h2.122V58.034a9,9,0,0,0,9.6,8.66Z" transform="translate(0 -1.427)" fill="#fff"/>
    <path id="Path_6849" data-name="Path 6849" d="M336.233,80.18V2h-18.25V8.238h9.975V73.943h-9.975v6.25Z" transform="translate(-86.233 0)" fill="red"/>
    <path id="Path_6850" data-name="Path 6850" d="M201.26,80.18V2h18.25V8.238h-9.975V73.943h9.975v6.25Z" transform="translate(-54.58 0)" fill="#fff"/>
    <path id="Path_6851" data-name="Path 6851" d="M336.233,80.18V2h-18.25V8.238h9.975V73.943h-9.975v6.25Z" transform="translate(-86.233 0)" fill="#fff"/>
  </g>
</svg>
